<?xml version="1.0" encoding="UTF-8"?>
<!DOCTYPE svg PUBLIC "-//W3C//DTD SVG 1.1//EN" "http://www.w3.org/Graphics/SVG/1.1/DTD/svg11.dtd">
<svg version="1.1" xmlns="http://www.w3.org/2000/svg" xmlns:xlink="http://www.w3.org/1999/xlink" x="0" y="0" width="614.12" height="351.62" viewBox="0, 0, 614.12, 351.62">
  <g id="Layer_3">
    <g>
      <path d="M-7.44,-7.19 L621.56,-7.19 L621.56,358.81 L-7.44,358.81 L-7.44,-7.19 z" fill="#FFFFFF"/>
      <path d="M-7.44,-7.19 L621.56,-7.19 L621.56,358.81 L-7.44,358.81 L-7.44,-7.19 z" fill-opacity="0" stroke="#000000" stroke-width="1"/>
    </g>
  </g>
  <g id="_Group_">
    <path d="M11.81,300.88 C11.79,296.004 12.766,291.175 14.68,286.69 C16.525,282.315 19.185,278.33 22.52,274.95 C25.853,271.583 29.801,268.888 34.15,267.01 C43.234,263.117 53.516,263.117 62.6,267.01 C71.443,270.8 78.49,277.847 82.28,286.69 C86.174,295.77 86.174,306.05 82.28,315.13 C78.475,323.914 71.425,330.89 62.6,334.6 C58.113,336.518 53.28,337.495 48.4,337.47 C43.503,337.505 38.652,336.528 34.15,334.6 C25.379,330.883 18.397,323.901 14.68,315.13 C12.756,310.627 11.779,305.777 11.81,300.88 z M20.32,300.88 C20.288,304.698 21.036,308.482 22.52,312 C23.923,315.358 25.961,318.413 28.52,321 C31.11,323.581 34.163,325.65 37.52,327.1 C44.519,330.113 52.451,330.113 59.45,327.1 C62.807,325.65 65.86,323.581 68.45,321 C76.532,312.723 78.894,300.421 74.45,289.74 C73.04,286.365 71.004,283.288 68.45,280.67 C65.873,278.061 62.817,275.973 59.45,274.52 C52.448,271.52 44.522,271.52 37.52,274.52 C34.153,275.973 31.097,278.061 28.52,280.67 C25.966,283.288 23.93,286.365 22.52,289.74 C21.036,293.265 20.287,297.056 20.32,300.88 z" fill="#E0592A" id="_Compound_Path_"/>
    <path d="M97.5,336.65 L97.5,264.91 L114.41,264.91 C117.024,264.951 119.623,265.31 122.15,265.98 C124.964,266.694 127.645,267.855 130.09,269.42 C132.537,270.968 134.632,273.012 136.24,275.42 C137.958,278.086 138.829,281.21 138.74,284.38 Q138.74,293.71 133.2,299.19 Q127.66,304.67 117.2,304.67 L106,304.67 L106,336.67 z M106,296.48 L114.92,296.48 C117.449,296.557 119.969,296.156 122.35,295.3 C124.086,294.649 125.671,293.652 127.01,292.37 C128.129,291.289 128.973,289.955 129.47,288.48 C129.931,287.161 130.174,285.777 130.19,284.38 C130.183,282.849 129.776,281.346 129.01,280.02 C128.206,278.594 127.129,277.34 125.84,276.33 C124.391,275.22 122.76,274.37 121.02,273.82 C119.081,273.199 117.056,272.889 115.02,272.9 L106.02,272.9 z" fill="#E0592A" id="_Compound_Path_2"/>
    <path d="M148.74,336.65 L148.74,264.91 L192.92,264.91 L192.92,273 L157.25,273 L157.25,296.48 L188.92,296.48 L188.92,304.57 L157.25,304.57 L157.25,328.57 L194.35,328.57 L194.35,336.66 z" fill="#E0592A" id="_Compound_Path_3"/>
    <path d="M276.15,264.91 L276.15,339.91 Q262.92,325.91 249.91,312.03 L223.67,284.18 C223.32,283.7 223,283.25 222.67,282.84 C222.34,282.43 222.04,281.99 221.67,281.51 C221.74,282.06 221.79,282.6 221.82,283.15 C221.85,283.7 221.91,284.24 221.98,284.79 L221.98,336.65 L213.47,336.65 L213.47,261.65 L239.74,290.07 Q252.74,304.15 265.98,318.51 C266.32,318.99 266.64,319.43 266.98,319.84 C267.32,320.25 267.61,320.7 267.98,321.18 C267.91,320.63 267.86,320.08 267.82,319.54 C267.78,319 267.74,318.44 267.67,317.9 L267.67,264.9 z" fill="#E0592A" id="_Compound_Path_4"/>
    <path d="M344.74,327.22 L348.23,332.35 C345.462,333.934 342.519,335.189 339.46,336.09 C336.247,337.025 332.916,337.49 329.57,337.47 C324.676,337.505 319.828,336.528 315.33,334.6 C306.554,330.887 299.568,323.904 295.85,315.13 C293.926,310.627 292.949,305.777 292.98,300.88 C292.953,295.968 293.93,291.102 295.85,286.58 C297.692,282.221 300.354,278.256 303.69,274.9 C307.041,271.564 310.99,268.887 315.33,267.01 C319.82,265.051 324.671,264.056 329.57,264.09 C332.913,264.069 336.242,264.516 339.46,265.42 C342.564,266.305 345.545,267.579 348.33,269.21 Q347.51,270.54 346.59,271.82 C345.97,272.68 345.36,273.55 344.74,274.44 C340.178,271.644 334.921,270.188 329.57,270.24 C325.535,270.213 321.54,271.031 317.84,272.64 C314.246,274.202 310.992,276.451 308.26,279.26 C305.502,282.088 303.294,285.404 301.75,289.04 C300.14,292.779 299.32,296.81 299.34,300.88 C299.295,304.964 300.088,309.014 301.67,312.78 C304.702,320.061 310.437,325.885 317.67,329.03 C323.906,331.697 330.863,332.166 337.4,330.36 C339.972,329.634 342.439,328.579 344.74,327.22 z" fill="#00ADBB" id="_Compound_Path_5"/>
    <path d="M364.08,336.65 L364.08,264.91 L370.44,264.91 L370.44,297.5 L411.85,297.5 L411.85,264.91 L418.3,264.91 Q418.3,282.91 418.25,300.78 Q418.2,318.65 418.2,336.65 L411.85,336.65 L411.85,303.55 L370.44,303.55 L370.44,336.65 z" fill="#00ADBB" id="_Compound_Path_6"/>
    <path d="M496.82,336.65 L490.36,336.65 Q487.18,329.27 484.11,321.84 Q481.04,314.41 477.85,307.03 L452.13,307.03 Q449.05,314.41 445.93,321.84 Q442.81,329.27 439.62,336.65 L433.27,336.65 Q441.27,317.79 449.16,299.14 Q457.05,280.49 465.04,261.63 Q473.04,280.49 480.93,299.14 Q488.82,317.79 496.82,336.65 z M465.96,278.95 C465.83,278.4 465.67,277.87 465.5,277.36 C465.33,276.85 465.18,276.36 465.04,275.77 C463.666,280.09 462.061,284.333 460.23,288.48 Q457.45,294.74 454.79,300.99 L475.19,300.99 Q472.84,295.44 470.58,289.99 C469.07,286.31 467.54,282.64 465.96,278.95 z" fill="#00ADBB" id="_Compound_Path_7"/>
    <path d="M513.21,264.91 L519.67,264.91 L519.67,336.65 L513.21,336.65 z" fill="#00ADBB" id="_Compound_Path_8"/>
    <path d="M602.74,264.91 L602.74,339.91 Q589,324.64 575.43,309.63 Q561.86,294.62 548.11,279.34 C547.77,278.86 547.45,278.42 547.11,278.01 C546.77,277.6 546.47,277.15 546.11,276.67 C546.18,277.22 546.23,277.77 546.27,278.31 C546.31,278.85 546.35,279.41 546.42,279.95 L546.42,336.63 L540.07,336.63 L540.07,261.63 Q553.8,277.11 567.38,292.37 L594.74,323.12 C595.08,323.6 595.4,324.05 595.74,324.46 C596.08,324.87 596.37,325.31 596.74,325.79 C596.67,325.24 596.62,324.7 596.59,324.15 C596.56,323.6 596.5,323.06 596.44,322.51 L596.44,264.91 z" fill="#00ADBB" id="_Compound_Path_9"/>
  </g>
  <g id="_Group_4">
    <g id="_Group_5">
      <path d="M253.85,169.49 C252.779,169.498 251.817,168.838 251.438,167.837 C251.059,166.835 251.343,165.703 252.15,165 C282.285,138.452 289.53,94.342 269.47,59.55 C268.864,58.335 269.307,56.858 270.482,56.178 C271.657,55.498 273.159,55.849 273.91,56.98 C295.212,93.886 287.525,140.694 255.54,168.85 C255.075,169.264 254.473,169.492 253.85,169.49 z" fill="#E0592A" id="_Path_"/>
      <path d="M196.44,191.16 C160.906,191.184 128.727,170.172 114.459,137.628 C100.19,105.084 106.538,67.181 130.631,41.061 C154.724,14.942 191.992,5.561 225.58,17.16 C226.893,17.642 227.58,19.085 227.126,20.408 C226.671,21.731 225.242,22.447 223.91,22.02 C192.246,11.071 157.103,19.907 134.383,44.531 C111.663,69.154 105.677,104.893 119.133,135.576 C132.59,166.259 162.936,186.064 196.44,186.03 C197.395,185.97 198.303,186.446 198.799,187.264 C199.294,188.082 199.294,189.108 198.799,189.926 C198.303,190.744 197.395,191.22 196.44,191.16 z" fill="#E0592A" id="_Path_2"/>
    </g>
    <g id="_Group_8">
      <path d="M422.16,191.16 C379.75,191.071 343.195,161.296 334.53,119.78 C334.213,118.836 334.47,117.793 335.19,117.105 C335.91,116.417 336.963,116.206 337.892,116.565 C338.821,116.923 339.459,117.787 339.53,118.78 C347.682,157.928 382.143,186.013 422.13,186.1 C423.484,186.185 424.54,187.308 424.54,188.665 C424.54,190.022 423.484,191.145 422.13,191.23 z" fill="#00ADBB" id="_Path_3"/>
      <path d="M479.62,169.44 C478.884,169.442 478.184,169.124 477.7,168.57 C477.248,168.061 477.017,167.394 477.058,166.714 C477.1,166.035 477.41,165.4 477.92,164.95 C502.952,142.85 512.582,108.059 502.476,76.233 C492.371,44.407 464.434,21.544 431.238,17.932 C398.042,14.321 365.843,30.642 349.13,59.55 C348.405,60.745 346.858,61.142 345.647,60.443 C344.437,59.744 344.007,58.205 344.68,56.98 C362.385,26.257 396.565,8.89 431.818,12.706 C467.072,16.522 496.744,40.801 507.465,74.601 C518.185,108.401 507.93,145.343 481.32,168.78 C480.854,169.201 480.248,169.436 479.62,169.44 z" fill="#00ADBB" id="_Path_4"/>
    </g>
    <g id="_Group_11">
      <path d="M380.52,49.78 C379.717,50.446 379.56,51.617 380.16,52.47 C400.494,81.959 400.138,121.036 379.27,150.15 C378.661,150.993 378.8,152.163 379.59,152.84 C380.015,153.206 380.575,153.377 381.132,153.31 C381.689,153.244 382.193,152.946 382.52,152.49 C404.389,121.978 404.761,81.025 383.45,50.12 C383.121,49.665 382.617,49.37 382.06,49.305 C381.503,49.241 380.944,49.413 380.52,49.78 z" fill="#00829B" id="_Path_5"/>
      <path d="M347.57,178.5 C346.98,177.933 346.105,177.783 345.36,178.12 C322.604,188.53 296.418,188.383 273.78,177.72 C273.024,177.364 272.127,177.516 271.53,178.1 C271.064,178.554 270.848,179.207 270.952,179.85 C271.055,180.493 271.465,181.045 272.05,181.33 C295.782,192.541 323.254,192.695 347.11,181.75 C347.703,181.467 348.119,180.91 348.223,180.261 C348.326,179.613 348.105,178.954 347.63,178.5 z" fill="#00829B" id="_Path_6"/>
    </g>
    <path d="M241.29,153.6 C240.514,153.6 239.78,153.251 239.29,152.65 C238.87,152.13 197.63,100.02 237.43,47.76 C282.01,-10.78 348.63,19.76 349.3,20.03 C350.186,20.385 350.802,21.203 350.9,22.152 C350.998,23.102 350.561,24.028 349.766,24.556 C348.97,25.084 347.948,25.128 347.11,24.67 C344.54,23.46 283.55,-4.33 241.51,50.88 C204.13,99.96 242.88,148.88 243.28,149.42 C244.17,150.522 244,152.137 242.9,153.03 C242.443,153.396 241.876,153.597 241.29,153.6 z" fill="#00829B" id="_Path_7"/>
  </g>
</svg>
