<?xml version="1.0" encoding="UTF-8"?>
<!-- Generated by Pixelmator Pro 3.7 -->
<svg width="111" height="98" viewBox="0 0 111 98" xmlns="http://www.w3.org/2000/svg">
    <g id="layer1">
        <g id="g5813">
            <path id="path26" fill="#f7f6f8" stroke="none" visibility="hidden" d="M -49.155762 39.941338 L 0.124265 39.941338 L 0.124265 9.313362 L -49.155762 9.313362 Z"/>
            <g id="g36">
                <path id="path38" fill="#dfdedf" stroke="none" visibility="hidden" d="M -43.668938 31.922836 L -43.668938 33.860168 C -43.668938 34.122833 -43.572945 34.349499 -43.380943 34.5415 C -43.188942 34.733498 -42.962273 34.829498 -42.700943 34.829498 L -13.639609 34.829498 C -13.376945 34.829498 -13.14894 34.733498 -12.958274 34.5415 C -12.766273 34.349499 -12.670272 34.122833 -12.670272 33.860168 L -12.670272 31.922836 C -12.670272 31.660164 -12.766273 31.433502 -12.958274 31.241501 C -13.14894 31.0495 -13.376945 30.953499 -13.639609 30.953499 L -42.700943 30.953499 C -42.962273 30.953499 -43.188942 31.0495 -43.380943 31.241501 C -43.572945 31.433502 -43.668938 31.660164 -43.668938 31.922836 M -43.668938 24.1735 L -43.668938 26.110832 C -43.668938 26.373497 -43.572945 26.600166 -43.380943 26.792168 C -43.188942 26.984169 -42.962273 27.078835 -42.700943 27.078835 L -13.639609 27.078835 C -13.376945 27.078835 -13.14894 26.984169 -12.958274 26.792168 C -12.766273 26.600166 -12.670272 26.373497 -12.670272 26.110832 L -12.670272 24.1735 C -12.670272 23.910835 -12.766273 23.684166 -12.958274 23.492165 C -13.14894 23.300163 -13.376945 23.20417 -13.639609 23.20417 L -42.700943 23.20417 C -42.962273 23.20417 -43.188942 23.300163 -43.380943 23.492165 C -43.572945 23.684166 -43.668938 23.910835 -43.668938 24.1735 M -43.668938 16.424171 L -43.668938 18.361504 C -43.668938 18.622833 -43.572945 18.85083 -43.380943 19.041496 C -43.188942 19.233498 -42.962273 19.329498 -42.700943 19.329498 L -13.639609 19.329498 C -13.376945 19.329498 -13.14894 19.233498 -12.958274 19.041496 C -12.766273 18.85083 -12.670272 18.622833 -12.670272 18.361504 L -12.670272 16.424171 C -12.670272 16.161499 -12.766273 15.934837 -12.958274 15.742836 C -13.14894 15.550835 -13.376945 15.454834 -13.639609 15.454834 L -42.700943 15.454834 C -42.962273 15.454834 -43.188942 15.550835 -43.380943 15.742836 C -43.572945 15.934837 -43.668938 16.161499 -43.668938 16.424171 M -8.795608 31.922836 L -8.795608 33.860168 C -8.795608 34.122833 -8.699607 34.349499 -8.507606 34.5415 C -8.315612 34.733498 -8.088943 34.829498 -7.826278 34.829498 L -5.888946 34.829498 C -5.626273 34.829498 -5.399611 34.733498 -5.20761 34.5415 C -5.015609 34.349499 -4.920943 34.122833 -4.920943 33.860168 L -4.920943 31.922836 C -4.920943 31.660164 -5.015609 31.433502 -5.20761 31.241501 C -5.399611 31.0495 -5.626273 30.953499 -5.888946 30.953499 L -7.826278 30.953499 C -8.088943 30.953499 -8.315612 31.0495 -8.507606 31.241501 C -8.699607 31.433502 -8.795608 31.660164 -8.795608 31.922836 M -8.795608 24.1735 L -8.795608 26.110832 C -8.795608 26.373497 -8.699607 26.600166 -8.507606 26.792168 C -8.315612 26.984169 -8.088943 27.078835 -7.826278 27.078835 L -5.888946 27.078835 C -5.626273 27.078835 -5.399611 26.984169 -5.20761 26.792168 C -5.015609 26.600166 -4.920943 26.373497 -4.920943 26.110832 L -4.920943 24.1735 C -4.920943 23.910835 -5.015609 23.684166 -5.20761 23.492165 C -5.399611 23.300163 -5.626273 23.20417 -5.888946 23.20417 L -7.826278 23.20417 C -8.088943 23.20417 -8.315612 23.300163 -8.507606 23.492165 C -8.699607 23.684166 -8.795608 23.910835 -8.795608 24.1735 M -8.795608 16.424171 L -8.795608 18.361504 C -8.795608 18.622833 -8.699607 18.85083 -8.507606 19.041496 C -8.315612 19.233498 -8.088943 19.329498 -7.826278 19.329498 L -5.888946 19.329498 C -5.626273 19.329498 -5.399611 19.233498 -5.20761 19.041496 C -5.015609 18.85083 -4.920943 18.622833 -4.920943 18.361504 L -4.920943 16.424171 C -4.920943 16.161499 -5.015609 15.934837 -5.20761 15.742836 C -5.399611 15.550835 -5.626273 15.454834 -5.888946 15.454834 L -7.826278 15.454834 C -8.088943 15.454834 -8.315612 15.550835 -8.507606 15.742836 C -8.699607 15.934837 -8.795608 16.161499 -8.795608 16.424171 M -47.54361 37.734833 L -47.54361 12.548164 C -47.54361 12.286835 -47.447609 12.060165 -47.255608 11.868164 C -47.063606 11.67617 -46.836945 11.58017 -46.575607 11.58017 L -2.014277 11.58017 C -1.751609 11.58017 -1.524943 11.67617 -1.332942 11.868164 C -1.140944 12.060165 -1.046279 12.286835 -1.046279 12.548164 L -1.046279 37.734833 C -1.046279 37.997501 -1.140944 38.224167 -1.332942 38.416164 C -1.524943 38.608166 -1.751609 38.704166 -2.014277 38.704166 L -46.575607 38.704166 C -46.836945 38.704166 -47.063606 38.608166 -47.255608 38.416164 C -47.447609 38.224167 -47.54361 37.997501 -47.54361 37.734833 M -51.418274 4.798836 L -51.418274 37.734833 C -51.418274 39.066833 -50.943604 40.208164 -49.995605 41.156166 C -49.047607 42.104164 -47.907608 42.578831 -46.575607 42.578831 L -2.014277 42.578831 C -0.682273 42.578831 0.457727 42.104164 1.405725 41.156166 C 2.355058 40.208164 2.828393 39.066833 2.828393 37.734833 L 2.828393 4.798836 C 2.828393 3.466835 2.355058 2.326836 1.405725 1.37883 C 0.457727 0.429497 -0.682273 -0.043831 -2.014277 -0.043831 L -46.575607 -0.043831 C -47.907608 -0.043831 -49.047607 0.429497 -49.995605 1.37883 C -50.943604 2.326836 -51.418274 3.466835 -51.418274 4.798836"/>
            </g>
            <g id="g40">
                <path id="path42" fill="#a6d069" stroke="none" visibility="hidden" d="M -7.98519 19.416565 L -5.778525 19.416565 C -5.254523 19.416565 -4.825194 18.987236 -4.825194 18.463234 L -4.825194 16.301903 C -4.825194 15.777901 -5.254523 15.348564 -5.778525 15.348564 L -7.98519 15.348564 C -8.509192 15.348564 -8.938529 15.777901 -8.938529 16.301903 L -8.938529 18.463234 C -8.938529 18.987236 -8.509192 19.416565 -7.98519 19.416565"/>
            </g>
            <g id="g44">
                <path id="path46" fill="#a6d069" stroke="none" visibility="hidden" d="M -7.98519 27.206169 L -5.778525 27.206169 C -5.254523 27.206169 -4.825194 26.77684 -4.825194 26.252838 L -4.825194 24.091507 C -4.825194 23.567505 -5.254523 23.138168 -5.778525 23.138168 L -7.98519 23.138168 C -8.509192 23.138168 -8.938529 23.567505 -8.938529 24.091507 L -8.938529 26.252838 C -8.938529 26.77684 -8.509192 27.206169 -7.98519 27.206169"/>
            </g>
            <g id="g48">
                <path id="path50" fill="#a6d069" stroke="none" visibility="hidden" d="M -7.98519 34.942677 L -5.778525 34.942677 C -5.254523 34.942677 -4.825194 34.513344 -4.825194 33.989342 L -4.825194 31.828011 C -4.825194 31.304008 -5.254523 30.874672 -5.778525 30.874672 L -7.98519 30.874672 C -8.509192 30.874672 -8.938529 31.304008 -8.938529 31.828011 L -8.938529 33.989342 C -8.938529 34.513344 -8.509192 34.942677 -7.98519 34.942677"/>
            </g>
            <g id="g52">
                <path id="path54" fill="#3f4d4e" stroke="none" d="M 16.027998 45.178696 L 17.925329 27.562698 L 22.261332 18.34803 L 27.139997 17.26403 L 24.158663 14.825363 L 34.998661 14.825363 L 44.213329 18.890694 L 48.549328 27.562698 L 49.795994 46.348026 L 53.083996 50.97736 L 59.602661 73.328026 L 52.133327 70.240021 L 50.581329 79.965363 L 45.097328 89.692024 L 37.497326 90.248024 L 26.703997 89.953362 L 19.43733 89.692024 L 14.574662 79.241364 L 14.159997 59.78936 L -3e-06 37.938694 Z"/>
            </g>
            <g id="g56">
                <path id="path58" fill="#3f4d4e" stroke="none" d="M 45.61478 88.967354 L 50.581448 91.03669 L 53.064114 93.727356 L 44.580112 95.382019 L 39.820114 93.312683 L 37.544113 88.967354 Z"/>
            </g>
            <g id="g60">
                <path id="path62" fill="#3f4d4e" stroke="none" d="M 19.540918 88.967354 L 14.57425 91.03669 L 12.091584 93.727356 L 20.575583 95.382019 L 25.335585 93.312683 L 27.611584 88.967354 Z"/>
            </g>
            <g id="g64">
                <path id="path66" fill="#f7f6f8" stroke="none" d="M 43.55732 87.344803 L 48.31065 78.476807 L 49.203983 63.624802 L 47.863987 47.47147 L 47.673317 32.824806 C 47.673317 32.824806 45.611984 26.359474 44.643986 25.544807 C 43.674652 24.728806 42.695984 24.350143 41.201317 24.408806 C 39.70665 24.468803 39.023987 24.567474 37.246651 26.04747 C 35.469318 27.527473 35.66132 33.928802 35.66132 33.928802 L 30.357321 33.999474 C 30.357321 33.999474 30.28932 27.384804 28.566654 26.188805 C 26.843988 24.99147 26.437319 24.754135 24.613321 24.408806 C 22.78932 24.064804 22.703985 24.611473 21.603987 25.476807 C 20.503984 26.343475 18.42132 32.915474 18.42132 32.915474 L 18.31732 33.21814 L 18.141321 47.47147 L 16.801321 63.624802 L 18.279985 78.670135 L 20.846651 87.243469 L 23.710653 88.655472 L 37.534653 88.958138 Z"/>
            </g>
            <g id="g68">
                <path id="path70" fill="#5e7075" stroke="none" d="M 33.474522 16.332962 L 24.558523 15.194298 L 24.158522 14.824959 L 34.99852 14.824959 L 44.213188 18.890297 L 48.049187 26.562294 L 41.475853 19.98896 L 42.373188 19.574295 L 31.646523 17.022293 Z"/>
            </g>
            <g id="g72">
                <path id="path74" fill="#3f4d4e" stroke="none" d="M 38.749458 32.84243 C 38.749458 34.297096 39.400124 35.477097 40.204124 35.477097 C 41.00679 35.477097 41.658791 34.297096 41.658791 32.84243 C 41.658791 31.387764 41.00679 30.207764 40.204124 30.207764 C 39.400124 30.207764 38.749458 31.387764 38.749458 32.84243"/>
            </g>
            <g id="g76">
                <path id="path78" fill="#f7f6f8" stroke="none" d="M 40.048519 31.504021 C 40.048519 32.093353 40.555183 32.570686 41.18185 32.570686 C 41.807186 32.570686 42.31385 32.093353 42.31385 31.504021 C 42.31385 30.914688 41.807186 30.437355 41.18185 30.437355 C 40.555183 30.437355 40.048519 30.914688 40.048519 31.504021"/>
            </g>
            <g id="g80">
                <path id="path82" fill="#3f4d4e" stroke="none" d="M 23.925585 32.84243 C 23.925585 34.297096 24.57625 35.477097 25.380251 35.477097 C 26.182917 35.477097 26.834917 34.297096 26.834917 32.84243 C 26.834917 31.387764 26.182917 30.207764 25.380251 30.207764 C 24.57625 30.207764 23.925585 31.387764 23.925585 32.84243"/>
            </g>
            <g id="g84">
                <path id="path86" fill="#f7f6f8" stroke="none" d="M 25.224531 31.504021 C 25.224531 32.093353 25.731199 32.570686 26.357866 32.570686 C 26.983198 32.570686 27.489866 32.093353 27.489866 31.504021 C 27.489866 30.914688 26.983198 30.437355 26.357866 30.437355 C 25.731199 30.437355 25.224531 30.914688 25.224531 31.504021"/>
            </g>
            <g id="g88">
                <g id="g90"/>
                <g id="g102">
                    <clipPath id="clipPath1">
                        <path d="M 57.712255 91.562698 L 8.354917 91.562698 L 8.354917 97.999994 L 57.712255 97.999994 Z"/>
                    </clipPath>
                    <g id="g100" opacity="0.100006" clip-path="url(#clipPath1)">
                        <g id="g98">
                            <path id="path96" fill="#3f4d4e" stroke="none" d="M 8.354791 94.781479 C 8.354791 96.558815 19.404123 98.000145 33.033455 98.000145 C 46.662788 98.000145 57.712124 96.558815 57.712124 94.781479 C 57.712124 93.00415 46.662788 91.562813 33.033455 91.562813 C 19.404123 91.562813 8.354791 93.00415 8.354791 94.781479"/>
                        </g>
                    </g>
                </g>
            </g>
            <g id="g104">
                <path id="path106" fill="#5e7075" stroke="none" d="M 51.319183 48.492432 L 53.084515 50.977764 L 59.603184 73.32843 L 56.456516 72.0271 L 52.816517 52.813766 L 50.431183 52.576431 Z"/>
            </g>
            <g id="g108">
                <path id="path110" fill="#5e7075" stroke="none" d="M 12.8476 45.136024 L 11.9996 47.256023 L 1.054265 38.416023 L 16.027601 45.178688 L 15.391599 47.785355 Z"/>
            </g>
            <g id="g112">
                <g id="g114"/>
                <g id="g126">
                    <clipPath id="clipPath2">
                        <path d="M 47.741593 88.968012 L 38.202918 88.968012 L 38.202918 92.77335 L 47.741593 92.77335 Z"/>
                    </clipPath>
                    <g id="g124" opacity="0.300003" clip-path="url(#clipPath2)">
                        <g id="g122">
                            <path id="path120" fill="#3f4d4e" stroke="none" d="M 45.614788 88.967346 L 47.741455 90.866013 L 44.005455 92.774017 L 38.202789 90.230011 L 43.290787 90.548683 L 45.097454 89.691345 Z"/>
                        </g>
                    </g>
                </g>
            </g>
            <g id="g128">
                <g id="g130"/>
                <g id="g142">
                    <clipPath id="clipPath3">
                        <path d="M 27.101579 89.117345 L 17.033586 89.117345 L 17.033586 92.138666 L 27.101579 92.138666 Z"/>
                    </clipPath>
                    <g id="g140" opacity="0.300003" clip-path="url(#clipPath3)">
                        <g id="g138">
                            <path id="path136" fill="#3f4d4e" stroke="none" d="M 19.153456 89.117744 L 17.033457 90.707077 L 18.676123 92.137749 L 23.552122 91.97908 L 27.101458 89.965744 L 23.764124 90.231079 L 20.849455 89.859077 Z"/>
                        </g>
                    </g>
                </g>
            </g>
            <g id="g144">
                <path id="path146" fill="#ebeaeb" stroke="none" d="M 28.264671 35.609234 C 28.875338 33.529236 32.143337 33.613235 32.559338 33.631897 C 32.975338 33.613235 36.244671 33.529236 36.855335 35.609234 C 37.070004 36.343899 34.831337 38.870567 32.80867 39.338566 C 32.80867 39.338566 32.762001 39.363899 32.736671 39.359898 C 32.712669 39.363899 32.662003 39.338566 32.662003 39.338566 C 30.623337 38.869232 28.048672 36.343899 28.264671 35.609234"/>
            </g>
            <g id="g148">
                <g id="g150"/>
                <g id="g162">
                    <clipPath id="clipPath4">
                        <path d="M 2.033586 18.681351 L -19.597068 18.681351 L -19.597068 41.426674 L 2.033586 41.426674 Z"/>
                    </clipPath>
                    <g id="g160" opacity="0.199997" clip-path="url(#clipPath4)">
                        <g id="g158">
                            <path id="path156" fill="#3f4d4e" stroke="none" visibility="hidden" d="M 0.543458 38.994415 L -19.535208 18.682419 L -19.59654 19.13575 L 1.070123 41.426414 L 2.032789 40.499748 L 1.083455 39.578415 Z"/>
                        </g>
                    </g>
                </g>
            </g>
            <g id="g940">
                <path id="path942" fill="#b16e5b" stroke="none" visibility="hidden" d="M 2.495851 39.329346 L -19.541479 18.688011 L -19.586813 19.144012 L 2.030519 40.570679 Z"/>
            </g>
            <g id="g944">
                <path id="path946" fill="#b16e5b" stroke="none" d="M 28.849174 34.750034 C 29.421175 32.79937 32.487839 32.878036 32.877174 32.895363 C 33.267841 32.878036 36.334507 32.79937 36.906506 34.750034 C 37.107841 35.439365 35.007839 37.808701 33.111839 38.248699 C 33.111839 38.248699 33.066505 38.272697 33.043839 38.267365 C 33.021175 38.272697 32.973175 38.248699 32.973175 38.248699 C 31.061174 37.807365 28.646507 35.439365 28.849174 34.750034"/>
            </g>
        </g>
    </g>
</svg>
