<?xml version="1.0" encoding="utf-8"?>
<!-- Generator: Adobe Illustrator 27.5.0, SVG Export Plug-In . SVG Version: 6.00 Build 0)  -->
<svg version="1.1"
	 id="svg8" xmlns:svg="http://www.w3.org/2000/svg" xmlns:inkscape="http://www.inkscape.org/namespaces/inkscape" xmlns:dc="http://purl.org/dc/elements/1.1/" xmlns:cc="http://creativecommons.org/ns#" xmlns:rdf="http://www.w3.org/1999/02/22-rdf-syntax-ns#" xmlns:sodipodi="http://sodipodi.sourceforge.net/DTD/sodipodi-0.dtd" inkscape:export-filename="/home/anxhelo/Desktop/Design/Linux Foundation/penguin_4.png" inkscape:export-xdpi="96" inkscape:export-ydpi="96" inkscape:version="0.92+devel unknown" sodipodi:docname="penguin_5.svg"
	 xmlns="http://www.w3.org/2000/svg" xmlns:xlink="http://www.w3.org/1999/xlink" x="0px" y="0px" viewBox="0 0 139.4 74.1"
	 style="enable-background:new 0 0 139.4 74.1;" xml:space="preserve">
<style type="text/css">
	.st0{fill:#3F4D4E;}
	.st1{fill:#E35925;}
	.st2{fill:#F7F6F8;}
	.st3{fill:#5E7075;}
	.st4{opacity:0.1;clip-path:url(#SVGID_00000140709365289981228130000002492126034786273693_);}
	.st5{opacity:0.3;clip-path:url(#SVGID_00000026138158309974952610000016407536803098982298_);}
	.st6{opacity:0.3;clip-path:url(#SVGID_00000003790443396002772750000000901546483400430468_);}
	.st7{fill:#EBEAEB;}
	.st8{opacity:0.1;clip-path:url(#SVGID_00000163752218670391213940000006591841895852704384_);}
	.st9{opacity:0.3;clip-path:url(#SVGID_00000005257081335798384240000017022709508263399558_);}
	.st10{opacity:0.3;clip-path:url(#SVGID_00000011731751705309199240000012827515714771440776_);}
	.st11{fill:#B16E5B;}
</style>
<sodipodi:namedview  bordercolor="#666666" borderlayer="true" borderopacity="1.0" fit-margin-bottom="0" fit-margin-left="0" fit-margin-right="0" fit-margin-top="0" id="base" inkscape:current-layer="layer1" inkscape:cx="89.625156" inkscape:cy="44.594553" inkscape:document-rotation="0" inkscape:document-units="mm" inkscape:pagecheckerboard="false" inkscape:pageopacity="0.0" inkscape:pageshadow="2" inkscape:showpageshadow="false" inkscape:window-height="716" inkscape:window-maximized="1" inkscape:window-width="1366" inkscape:window-x="0" inkscape:window-y="0" inkscape:zoom="2.8" pagecolor="#ffffff" showgrid="true" showguides="true" units="px">
	<inkscape:grid  id="grid10" originx="-72.58851" originy="-110.96191" type="xygrid"></inkscape:grid>
</sodipodi:namedview>
<g id="layer1" transform="translate(-72.588487,-166.43842)" inkscape:groupmode="layer" inkscape:label="Layer 1">
	<g id="g6594" transform="translate(19.528304,19.419355)">
		<g id="g736" transform="matrix(0.35277777,0,0,-0.35277777,73.982797,150.76083)">
			<path id="path738" inkscape:connector-curvature="0" class="st0" d="M164.8-29.5c-10.2,0-18.4-8.3-18.4-18.4s8.3-18.4,18.4-18.4
				c10.2,0,18.4,8.3,18.4,18.4S175-29.5,164.8-29.5 M164.8-71.1c-12.8,0-23.2,10.4-23.2,23.2c0,12.8,10.4,23.2,23.2,23.2
				S188-35.1,188-47.9C188-60.7,177.6-71.1,164.8-71.1"/>
		</g>
		<g id="g740" transform="matrix(0.35277777,0,0,-0.35277777,71.451229,150.76083)">
			<path id="path742" inkscape:connector-curvature="0" class="st0" d="M144.9-29.5c-10.2,0-18.4-8.3-18.4-18.4s8.3-18.4,18.4-18.4
				c10.2,0,18.4,8.3,18.4,18.4S155.1-29.5,144.9-29.5 M144.9-71.1c-12.8,0-23.2,10.4-23.2,23.2c0,12.8,10.4,23.2,23.2,23.2
				s23.2-10.4,23.2-23.2C168.1-60.7,157.7-71.1,144.9-71.1"/>
		</g>
		<g id="g744" transform="matrix(0.35277777,0,0,-0.35277777,68.919624,150.76083)">
			<path id="path746" inkscape:connector-curvature="0" class="st1" d="M125-29.5c-10.2,0-18.4-8.3-18.4-18.4s8.3-18.4,18.4-18.4
				s18.4,8.3,18.4,18.4S135.1-29.5,125-29.5 M125-71.1c-12.8,0-23.2,10.4-23.2,23.2c0,12.8,10.4,23.2,23.2,23.2
				c12.8,0,23.2-10.4,23.2-23.2C148.1-60.7,137.7-71.1,125-71.1"/>
		</g>
		<g id="g748" transform="matrix(0.35277777,0,0,-0.35277777,63.328627,154.17166)">
			<path id="path750" inkscape:connector-curvature="0" class="st0" d="M80.9-56.4l-4.8,44.5L65.2,11.4l-12.3,2.7l7.5,6.2H33L9.7,10
				L-1.2-11.9l-3.1-47.4L-12.6-71l-16.5-56.4l18.9,7.8l3.9-24.6l13.8-24.6l19.2-1.4l27.2,0.7l18.3,0.7l12.3,26.4l1,49.1l35.8,55.2
				L80.9-56.4z"/>
		</g>
		<g id="g752" transform="matrix(0.35277777,0,0,-0.35277777,56.356644,164.49024)">
			<path id="path754" inkscape:connector-curvature="0" class="st0" d="M26-137.7l-12.5-5.2l-6.3-6.8l21.4-4.2l12,5.2l5.7,11H26z"/>
		</g>
		<g id="g756" transform="matrix(0.35277777,0,0,-0.35277777,62.500833,164.49024)">
			<path id="path758" inkscape:connector-curvature="0" class="st0" d="M74.4-137.7l12.5-5.2l6.3-6.8l-21.4-4.2l-12,5.2l-5.7,11
				H74.4z"/>
		</g>
		<g id="g760" transform="matrix(0.35277777,0,0,-0.35277777,56.841501,164.1079)">
			<path id="path762" inkscape:connector-curvature="0" class="st2" d="M29.8-134.6l-12,22.4l-2.3,37.5L18.9-34l0.5,37
				c0,0,5.2,16.3,7.6,18.4c2.4,2.1,4.9,3,8.7,2.9c3.8-0.1,5.5-0.4,10-4.1s4-19.9,4-19.9L63.1,0c0,0,0.2,16.7,4.5,19.7
				c4.4,3,5.4,3.6,10,4.5c4.6,0.9,4.8-0.5,7.6-2.7c2.8-2.2,8-18.8,8-18.8L93.5,2L94-34l3.4-40.8l-3.7-38l-6.5-21.6l-7.2-3.6
				L45-138.7L29.8-134.6z"/>
		</g>
		<g id="g764" transform="matrix(0.35277777,0,0,-0.35277777,59.217425,147.37431)">
			<path id="path766" inkscape:connector-curvature="0" class="st3" d="M48.5-2.8L71,0.1L72,1H44.7L21.4-9.3l-9.7-19.4L28.3-12
				L26-11l27.1,6.4L48.5-2.8z"/>
		</g>
		<g id="g768" transform="matrix(0.35277777,0,0,-0.35277777,58.101764,151.26467)">
			<path id="path770" inkscape:connector-curvature="0" class="st0" d="M39.7-33.5c0-3.7-1.6-6.7-3.7-6.7c-2,0-3.7,3-3.7,6.7
				s1.6,6.7,3.7,6.7C38.1-26.8,39.7-29.8,39.7-33.5"/>
		</g>
		<g id="g772" transform="matrix(0.35277777,0,0,-0.35277777,58.234622,150.94205)">
			<path id="path774" inkscape:connector-curvature="0" class="st2" d="M40.8-30.9c0-1.5-1.3-2.7-2.9-2.7s-2.9,1.2-2.9,2.7
				s1.3,2.7,2.9,2.7S40.8-29.4,40.8-30.9"/>
		</g>
		<g id="g776" transform="matrix(0.35277777,0,0,-0.35277777,61.594971,151.26467)">
			<path id="path778" inkscape:connector-curvature="0" class="st0" d="M67.2-33.5c0-3.7-1.6-6.7-3.7-6.7c-2,0-3.7,3-3.7,6.7
				s1.6,6.7,3.7,6.7C65.6-26.8,67.2-29.8,67.2-33.5"/>
		</g>
		<g id="g780" transform="matrix(0.35277777,0,0,-0.35277777,61.727792,150.94205)">
			<path id="path782" inkscape:connector-curvature="0" class="st2" d="M68.3-30.9c0-1.5-1.3-2.7-2.9-2.7c-1.6,0-2.9,1.2-2.9,2.7
				s1.3,2.7,2.9,2.7C67-28.2,68.3-29.4,68.3-30.9"/>
		</g>
		<g id="g784" transform="matrix(0.35277777,0,0,-0.35277777,-7.4899216,210.475)">
			<g id="g786">
			</g>
			<g id="g798">
				<g>
					<defs>
						<rect id="SVGID_1_" x="216.7" y="-24.8" width="44" height="5.7"/>
					</defs>
					<clipPath id="SVGID_00000116237069325762485620000010042487951548447366_">
						<use xlink:href="#SVGID_1_"  style="overflow:visible;"/>
					</clipPath>
					<g id="g796" style="opacity:0.1;clip-path:url(#SVGID_00000116237069325762485620000010042487951548447366_);">
						<g id="g794" transform="translate(205.871,126.4668)">
							<path id="path792" inkscape:connector-curvature="0" class="st0" d="M95.2-148.4c0-4.5-27.9-8.1-62.3-8.1
								c-34.4,0-62.3,3.6-62.3,8.1c0,4.5,27.9,8.1,62.3,8.1C67.3-140.3,95.2-144,95.2-148.4"/>
						</g>
					</g>
				</g>
			</g>
		</g>
		<g id="g800" transform="matrix(0.35277777,0,0,-0.35277777,55.012455,154.95254)">
			<path id="path802" inkscape:connector-curvature="0" class="st3" d="M15.4-62.5l-4.5-6.3l-16.5-56.4l7.9,3.3l9.2,48.5l6,0.6
				L15.4-62.5z"/>
		</g>
		<g id="g804" transform="matrix(0.35277777,0,0,-0.35277777,64.078067,154.16161)">
			<path id="path806" inkscape:connector-curvature="0" class="st3" d="M86.8-56.3l2.1-5.4l27.6,22.3L78.8-56.4l1.6-6.6L86.8-56.3z"
				/>
		</g>
		<g id="g808" transform="matrix(0.35277777,0,0,-0.35277777,-7.4899216,210.475)">
			<g id="g810">
			</g>
			<g id="g822">
				<g>
					<defs>
						<rect id="SVGID_00000073686095635677719810000012691208244995312265_" x="209.4" y="-13.8" width="8.5" height="3.4"/>
					</defs>
					<clipPath id="SVGID_00000126318672634430423540000017231657568667201920_">
						<use xlink:href="#SVGID_00000073686095635677719810000012691208244995312265_"  style="overflow:visible;"/>
					</clipPath>
					<g id="g820" style="opacity:0.3;clip-path:url(#SVGID_00000126318672634430423540000017231657568667201920_);">
						<g id="g818" transform="translate(180.9824,130.3505)">
							<path id="path816" inkscape:connector-curvature="0" class="st0" d="M26-137.7l-5.4-4.8l9.4-4.8l14.6,6.4l-12.8-0.8l-4.6,2.2
								L26-137.7z"/>
						</g>
					</g>
				</g>
			</g>
		</g>
		<g id="g824" transform="matrix(0.35277777,0,0,-0.35277777,-7.4899216,210.475)">
			<g id="g826">
			</g>
			<g id="g838">
				<g>
					<defs>
						<rect id="SVGID_00000075138860336374582530000009321138758410445450_" x="261.9" y="-12.8" width="9" height="2.7"/>
					</defs>
					<clipPath id="SVGID_00000108289826993015263670000017103210547002298297_">
						<use xlink:href="#SVGID_00000075138860336374582530000009321138758410445450_"  style="overflow:visible;"/>
					</clipPath>
					<g id="g836" style="opacity:0.3;clip-path:url(#SVGID_00000108289826993015263670000017103210547002298297_);">
						<g id="g834" transform="translate(198.6578,130.2501)">
							<path id="path832" inkscape:connector-curvature="0" class="st0" d="M75.1-137.9l5.4-4l-4.1-3.6L64-145.2l-9,5.1l8.4-0.7
								l7.4,0.9L75.1-137.9z"/>
						</g>
					</g>
				</g>
			</g>
		</g>
		<g id="g840" transform="matrix(0.35277777,0,0,-0.35277777,60.445126,151.91664)">
			<path id="path842" inkscape:connector-curvature="0" class="st7" d="M58.2-38.6c-1.5,5.2-9.8,5-10.8,5c-1.1,0-9.3,0.3-10.8-5
				c-0.5-1.9,5.1-8.2,10.2-9.4c0,0,0.1-0.1,0.2-0.1c0.1,0,0.2,0.1,0.2,0.1C52.2-46.8,58.7-40.4,58.2-38.6"/>
		</g>
		<g id="g844" transform="matrix(0.35277777,0,0,-0.35277777,79.508148,154.17166)">
			<path id="path846" inkscape:connector-curvature="0" class="st0" d="M208.4-56.4l4.8,44.5l10.9,23.3l12.3,2.7l-7.5,6.2h27.4
				L279.5,10l10.9-21.9l3.1-47.4l8.3-11.7l16.5-56.4l-18.9,7.8l-3.9-24.6l-13.8-24.6l-19.2-1.4l-27.2,0.7l-18.3,0.7l-12.3,26.4
				l-1,49.1l-35.8,55.2L208.4-56.4z"/>
		</g>
		<g id="g848" transform="matrix(0.35277777,0,0,-0.35277777,86.480088,164.49024)">
			<path id="path850" inkscape:connector-curvature="0" class="st0" d="M263.3-137.7l12.5-5.2l6.3-6.8l-21.4-4.2l-12,5.2l-5.7,11
				H263.3z"/>
		</g>
		<g id="g852" transform="matrix(0.35277777,0,0,-0.35277777,80.335908,164.49024)">
			<path id="path854" inkscape:connector-curvature="0" class="st0" d="M214.9-137.7l-12.5-5.2l-6.3-6.8l21.4-4.2l12,5.2l5.7,11
				H214.9z"/>
		</g>
		<g id="g856" transform="matrix(0.35277777,0,0,-0.35277777,85.995268,164.1079)">
			<path id="path858" inkscape:connector-curvature="0" class="st2" d="M259.5-134.6l12,22.4l2.3,37.5L270.4-34l-0.5,37
				c0,0-5.2,16.3-7.6,18.4c-2.4,2.1-4.9,3-8.7,2.9c-3.8-0.1-5.5-0.4-10-4.1s-4-19.9-4-19.9L226.2,0c0,0-0.2,16.7-4.5,19.7
				c-4.4,3-5.4,3.6-10,4.5c-4.6,0.9-4.8-0.5-7.6-2.7c-2.8-2.2-8-18.8-8-18.8L195.8,2l-0.4-36l-3.4-40.8l3.7-38l6.5-21.6l7.2-3.6
				l34.9-0.8L259.5-134.6z"/>
		</g>
		<g id="g860" transform="matrix(0.35277777,0,0,-0.35277777,83.619308,147.37431)">
			<path id="path862" inkscape:connector-curvature="0" class="st3" d="M240.8-2.8l-22.5,2.9l-1,0.9h27.4l23.3-10.3l9.7-19.4L261-12
				l2.3,1l-27.1,6.4L240.8-2.8z"/>
		</g>
		<g id="g864" transform="matrix(0.35277777,0,0,-0.35277777,84.734968,151.26467)">
			<path id="path866" inkscape:connector-curvature="0" class="st0" d="M249.6-33.5c0-3.7,1.6-6.7,3.7-6.7c2,0,3.7,3,3.7,6.7
				s-1.6,6.7-3.7,6.7C251.2-26.8,249.6-29.8,249.6-33.5"/>
		</g>
		<g id="g868" transform="matrix(0.35277777,0,0,-0.35277777,84.602148,150.94205)">
			<path id="path870" inkscape:connector-curvature="0" class="st2" d="M248.5-30.9c0-1.5,1.3-2.7,2.9-2.7c1.6,0,2.9,1.2,2.9,2.7
				s-1.3,2.7-2.9,2.7C249.8-28.2,248.5-29.4,248.5-30.9"/>
		</g>
		<g id="g872" transform="matrix(0.35277777,0,0,-0.35277777,81.241798,151.26467)">
			<path id="path874" inkscape:connector-curvature="0" class="st0" d="M222-33.5c0-3.7,1.6-6.7,3.7-6.7c2,0,3.7,3,3.7,6.7
				s-1.6,6.7-3.7,6.7C223.7-26.8,222-29.8,222-33.5"/>
		</g>
		<g id="g876" transform="matrix(0.35277777,0,0,-0.35277777,81.108948,150.94205)">
			<path id="path878" inkscape:connector-curvature="0" class="st2" d="M221-30.9c0-1.5,1.3-2.7,2.9-2.7c1.6,0,2.9,1.2,2.9,2.7
				s-1.3,2.7-2.9,2.7C222.3-28.2,221-29.4,221-30.9"/>
		</g>
		<g id="g880" transform="matrix(0.35277777,0,0,-0.35277777,-7.4899216,210.475)">
			<g id="g882">
			</g>
			<g id="g894">
				<g>
					<defs>
						<rect id="SVGID_00000160150842268703780320000009659121596608514227_" x="475.9" y="-24.8" width="44" height="5.7"/>
					</defs>
					<clipPath id="SVGID_00000069395064503493253810000002077324635135486646_">
						<use xlink:href="#SVGID_00000160150842268703780320000009659121596608514227_"  style="overflow:visible;"/>
					</clipPath>
					<g id="g892" style="opacity:0.1;clip-path:url(#SVGID_00000069395064503493253810000002077324635135486646_);">
						<g id="g890" transform="translate(241.4832,126.4668)">
							<path id="path888" inkscape:connector-curvature="0" class="st0" d="M194.1-148.4c0-4.5,27.9-8.1,62.3-8.1
								c34.4,0,62.3,3.6,62.3,8.1c0,4.5-27.9,8.1-62.3,8.1C222-140.3,194.1-144,194.1-148.4"/>
						</g>
					</g>
				</g>
			</g>
		</g>
		<g id="g896" transform="matrix(0.35277777,0,0,-0.35277777,87.999758,156.81894)">
			<path id="path898" inkscape:connector-curvature="0" class="st3" d="M275.3-77.2l4.5-6.3l16.5-56.4l-7.9,3.3l-9.2,48.5l-6,0.6
				L275.3-77.2z"/>
		</g>
		<g id="g900" transform="matrix(0.35277777,0,0,-0.35277777,78.758708,154.16161)">
			<path id="path902" inkscape:connector-curvature="0" class="st3" d="M202.5-56.3l-2.1-5.4l-27.6,22.3l37.8-17.1l-1.6-6.6
				L202.5-56.3z"/>
		</g>
		<g id="g904" transform="matrix(0.35277777,0,0,-0.35277777,-7.4899216,210.475)">
			<g id="g906">
			</g>
			<g id="g918">
				<g>
					<defs>
						<rect id="SVGID_00000010271554384535914590000017226097758313001618_" x="518.8" y="-13.8" width="8.5" height="3.4"/>
					</defs>
					<clipPath id="SVGID_00000155868011820074480020000001455026711973630389_">
						<use xlink:href="#SVGID_00000010271554384535914590000017226097758313001618_"  style="overflow:visible;"/>
					</clipPath>
					<g id="g916" style="opacity:0.3;clip-path:url(#SVGID_00000155868011820074480020000001455026711973630389_);">
						<g id="g914" transform="translate(266.3717,130.3505)">
							<path id="path912" inkscape:connector-curvature="0" class="st0" d="M263.3-137.7l5.4-4.8l-9.4-4.8l-14.6,6.4l12.8-0.8
								l4.6,2.2L263.3-137.7z"/>
						</g>
					</g>
				</g>
			</g>
		</g>
		<g id="g920" transform="matrix(0.35277777,0,0,-0.35277777,-7.4899216,210.475)">
			<g id="g922">
			</g>
			<g id="g934">
				<g>
					<defs>
						<rect id="SVGID_00000010313008440825420660000001158937161759644044_" x="465.8" y="-12.8" width="9" height="2.7"/>
					</defs>
					<clipPath id="SVGID_00000101097708417317793290000017785798878220164745_">
						<use xlink:href="#SVGID_00000010313008440825420660000001158937161759644044_"  style="overflow:visible;"/>
					</clipPath>
					<g id="g932" style="opacity:0.3;clip-path:url(#SVGID_00000101097708417317793290000017785798878220164745_);">
						<g id="g930" transform="translate(248.6963,130.2501)">
							<path id="path928" inkscape:connector-curvature="0" class="st0" d="M214.2-137.9l-5.4-4l4.1-3.6l12.3,0.4l9,5.1l-8.4-0.7
								l-7.4,0.9L214.2-137.9z"/>
						</g>
					</g>
				</g>
			</g>
		</g>
		<g id="g936" transform="matrix(0.35277777,0,0,-0.35277777,82.391608,151.91664)">
			<path id="path938" inkscape:connector-curvature="0" class="st7" d="M231.1-38.6c1.5,5.2,9.8,5,10.8,5c1.1,0,9.3,0.3,10.8-5
				c0.5-1.9-5.1-8.2-10.2-9.4c0,0-0.1-0.1-0.2-0.1c-0.1,0-0.2,0.1-0.2,0.1C237.1-46.8,230.6-40.4,231.1-38.6"/>
		</g>
		<g id="g960" transform="matrix(0.35277777,0,0,-0.35277777,60.307368,151.71418)">
			<path id="path962" inkscape:connector-curvature="0" class="st11" d="M57.1-37c-1.4,4.9-9.2,4.7-10.2,4.7c-1,0-8.7,0.2-10.2-4.7
				c-0.5-1.7,4.8-7.7,9.6-8.8c0,0,0.1-0.1,0.2,0c0.1,0,0.2,0,0.2,0C51.5-44.7,57.6-38.7,57.1-37"/>
		</g>
		<g id="g964" transform="matrix(0.35277777,0,0,-0.35277777,82.529368,151.71418)">
			<path id="path966" inkscape:connector-curvature="0" class="st11" d="M232.2-37c1.4,4.9,9.2,4.7,10.2,4.7c1,0,8.7,0.2,10.2-4.7
				c0.5-1.7-4.8-7.7-9.6-8.8c0,0-0.1-0.1-0.2,0c-0.1,0-0.2,0-0.2,0C237.8-44.7,231.7-38.7,232.2-37"/>
		</g>
	</g>
</g>
</svg>
