<?xml version="1.0" encoding="UTF-8"?>
<!-- Generated by Pixelmator Pro 3.6.7 -->
<svg width="111" height="98" viewBox="0 0 111 98" xmlns="http://www.w3.org/2000/svg">
    <g id="layer1">
        <g id="g5813">
            <path id="path26" fill="#f7f6f8" stroke="none" visibility="hidden" d="M 108.758942 39.941338 L 59.478916 39.941338 L 59.478916 9.313362 L 108.758942 9.313362 Z"/>
            <g id="g36">
                <path id="path38" fill="#dfdedf" stroke="none" visibility="hidden" d="M 103.272118 31.922836 L 103.272118 33.860168 C 103.272118 34.122833 103.176125 34.349499 102.984123 34.5415 C 102.792122 34.733498 102.565453 34.829498 102.304123 34.829498 L 73.24279 34.829498 C 72.980125 34.829498 72.752121 34.733498 72.561455 34.5415 C 72.369453 34.349499 72.273453 34.122833 72.273453 33.860168 L 72.273453 31.922836 C 72.273453 31.660164 72.369453 31.433502 72.561455 31.241501 C 72.752121 31.0495 72.980125 30.953499 73.24279 30.953499 L 102.304123 30.953499 C 102.565453 30.953499 102.792122 31.0495 102.984123 31.241501 C 103.176125 31.433502 103.272118 31.660164 103.272118 31.922836 M 103.272118 24.1735 L 103.272118 26.110832 C 103.272118 26.373497 103.176125 26.600166 102.984123 26.792168 C 102.792122 26.984169 102.565453 27.078835 102.304123 27.078835 L 73.24279 27.078835 C 72.980125 27.078835 72.752121 26.984169 72.561455 26.792168 C 72.369453 26.600166 72.273453 26.373497 72.273453 26.110832 L 72.273453 24.1735 C 72.273453 23.910835 72.369453 23.684166 72.561455 23.492165 C 72.752121 23.300163 72.980125 23.20417 73.24279 23.20417 L 102.304123 23.20417 C 102.565453 23.20417 102.792122 23.300163 102.984123 23.492165 C 103.176125 23.684166 103.272118 23.910835 103.272118 24.1735 M 103.272118 16.424171 L 103.272118 18.361504 C 103.272118 18.622833 103.176125 18.85083 102.984123 19.041496 C 102.792122 19.233498 102.565453 19.329498 102.304123 19.329498 L 73.24279 19.329498 C 72.980125 19.329498 72.752121 19.233498 72.561455 19.041496 C 72.369453 18.85083 72.273453 18.622833 72.273453 18.361504 L 72.273453 16.424171 C 72.273453 16.161499 72.369453 15.934837 72.561455 15.742836 C 72.752121 15.550835 72.980125 15.454834 73.24279 15.454834 L 102.304123 15.454834 C 102.565453 15.454834 102.792122 15.550835 102.984123 15.742836 C 103.176125 15.934837 103.272118 16.161499 103.272118 16.424171 M 68.398788 31.922836 L 68.398788 33.860168 C 68.398788 34.122833 68.302788 34.349499 68.110786 34.5415 C 67.918793 34.733498 67.692123 34.829498 67.429459 34.829498 L 65.492126 34.829498 C 65.229454 34.829498 65.002792 34.733498 64.810791 34.5415 C 64.61879 34.349499 64.524124 34.122833 64.524124 33.860168 L 64.524124 31.922836 C 64.524124 31.660164 64.61879 31.433502 64.810791 31.241501 C 65.002792 31.0495 65.229454 30.953499 65.492126 30.953499 L 67.429459 30.953499 C 67.692123 30.953499 67.918793 31.0495 68.110786 31.241501 C 68.302788 31.433502 68.398788 31.660164 68.398788 31.922836 M 68.398788 24.1735 L 68.398788 26.110832 C 68.398788 26.373497 68.302788 26.600166 68.110786 26.792168 C 67.918793 26.984169 67.692123 27.078835 67.429459 27.078835 L 65.492126 27.078835 C 65.229454 27.078835 65.002792 26.984169 64.810791 26.792168 C 64.61879 26.600166 64.524124 26.373497 64.524124 26.110832 L 64.524124 24.1735 C 64.524124 23.910835 64.61879 23.684166 64.810791 23.492165 C 65.002792 23.300163 65.229454 23.20417 65.492126 23.20417 L 67.429459 23.20417 C 67.692123 23.20417 67.918793 23.300163 68.110786 23.492165 C 68.302788 23.684166 68.398788 23.910835 68.398788 24.1735 M 68.398788 16.424171 L 68.398788 18.361504 C 68.398788 18.622833 68.302788 18.85083 68.110786 19.041496 C 67.918793 19.233498 67.692123 19.329498 67.429459 19.329498 L 65.492126 19.329498 C 65.229454 19.329498 65.002792 19.233498 64.810791 19.041496 C 64.61879 18.85083 64.524124 18.622833 64.524124 18.361504 L 64.524124 16.424171 C 64.524124 16.161499 64.61879 15.934837 64.810791 15.742836 C 65.002792 15.550835 65.229454 15.454834 65.492126 15.454834 L 67.429459 15.454834 C 67.692123 15.454834 67.918793 15.550835 68.110786 15.742836 C 68.302788 15.934837 68.398788 16.161499 68.398788 16.424171 M 107.14679 37.734833 L 107.14679 12.548164 C 107.14679 12.286835 107.050789 12.060165 106.858788 11.868164 C 106.666786 11.67617 106.440125 11.58017 106.178787 11.58017 L 61.617458 11.58017 C 61.35479 11.58017 61.128124 11.67617 60.936123 11.868164 C 60.744125 12.060165 60.64946 12.286835 60.64946 12.548164 L 60.64946 37.734833 C 60.64946 37.997501 60.744125 38.224167 60.936123 38.416164 C 61.128124 38.608166 61.35479 38.704166 61.617458 38.704166 L 106.178787 38.704166 C 106.440125 38.704166 106.666786 38.608166 106.858788 38.416164 C 107.050789 38.224167 107.14679 37.997501 107.14679 37.734833 M 111.021454 4.798836 L 111.021454 37.734833 C 111.021454 39.066833 110.546783 40.208164 109.598785 41.156166 C 108.650787 42.104164 107.510788 42.578831 106.178787 42.578831 L 61.617458 42.578831 C 60.285454 42.578831 59.145454 42.104164 58.197456 41.156166 C 57.248123 40.208164 56.774788 39.066833 56.774788 37.734833 L 56.774788 4.798836 C 56.774788 3.466835 57.248123 2.326836 58.197456 1.37883 C 59.145454 0.429497 60.285454 -0.043831 61.617458 -0.043831 L 106.178787 -0.043831 C 107.510788 -0.043831 108.650787 0.429497 109.598785 1.37883 C 110.546783 2.326836 111.021454 3.466835 111.021454 4.798836"/>
            </g>
            <g id="g40">
                <path id="path42" fill="#a6d069" stroke="none" visibility="hidden" d="M 67.588371 19.416565 L 65.381706 19.416565 C 64.857704 19.416565 64.428375 18.987236 64.428375 18.463234 L 64.428375 16.301903 C 64.428375 15.777901 64.857704 15.348564 65.381706 15.348564 L 67.588371 15.348564 C 68.112373 15.348564 68.54171 15.777901 68.54171 16.301903 L 68.54171 18.463234 C 68.54171 18.987236 68.112373 19.416565 67.588371 19.416565"/>
            </g>
            <g id="g44">
                <path id="path46" fill="#a6d069" stroke="none" visibility="hidden" d="M 67.588371 27.206169 L 65.381706 27.206169 C 64.857704 27.206169 64.428375 26.77684 64.428375 26.252838 L 64.428375 24.091507 C 64.428375 23.567505 64.857704 23.138168 65.381706 23.138168 L 67.588371 23.138168 C 68.112373 23.138168 68.54171 23.567505 68.54171 24.091507 L 68.54171 26.252838 C 68.54171 26.77684 68.112373 27.206169 67.588371 27.206169"/>
            </g>
            <g id="g48">
                <path id="path50" fill="#a6d069" stroke="none" visibility="hidden" d="M 67.588371 34.942677 L 65.381706 34.942677 C 64.857704 34.942677 64.428375 34.513344 64.428375 33.989342 L 64.428375 31.828011 C 64.428375 31.304008 64.857704 30.874672 65.381706 30.874672 L 67.588371 30.874672 C 68.112373 30.874672 68.54171 31.304008 68.54171 31.828011 L 68.54171 33.989342 C 68.54171 34.513344 68.112373 34.942677 67.588371 34.942677"/>
            </g>
            <g id="g52">
                <path id="path54" fill="#3f4d4e" stroke="none" d="M 43.575184 45.178696 L 41.677853 27.562698 L 37.34185 18.34803 L 32.463184 17.26403 L 35.444519 14.825363 L 24.604519 14.825363 L 15.389853 18.890694 L 11.053852 27.562698 L 9.807186 46.348026 L 6.519187 50.97736 L 0.000521 73.328026 L 7.469853 70.240021 L 9.021852 79.965363 L 14.505853 89.692024 L 22.105854 90.248024 L 32.899185 89.953362 L 40.165852 89.692024 L 45.028519 79.241364 L 45.443184 59.78936 L 59.603184 37.938694 Z"/>
            </g>
            <g id="g56">
                <path id="path58" fill="#3f4d4e" stroke="none" d="M 13.988401 88.967354 L 9.021735 91.03669 L 6.539069 93.727356 L 15.023068 95.382019 L 19.783068 93.312683 L 22.059067 88.967354 Z"/>
            </g>
            <g id="g60">
                <path id="path62" fill="#3f4d4e" stroke="none" d="M 40.062263 88.967354 L 45.028931 91.03669 L 47.511597 93.727356 L 39.027599 95.382019 L 34.267597 93.312683 L 31.991598 88.967354 Z"/>
            </g>
            <g id="g64">
                <path id="path66" fill="#f7f6f8" stroke="none" d="M 16.045862 87.344803 L 11.29253 78.476807 L 10.399197 63.624802 L 11.739196 47.47147 L 11.929863 32.824806 C 11.929863 32.824806 13.991197 26.359474 14.959196 25.544807 C 15.92853 24.728806 16.907196 24.350143 18.401863 24.408806 C 19.89653 24.468803 20.579195 24.567474 22.356529 26.04747 C 24.133862 27.527473 23.941862 33.928802 23.941862 33.928802 L 29.245861 33.999474 C 29.245861 33.999474 29.313862 27.384804 31.036528 26.188805 C 32.759193 24.99147 33.165863 24.754135 34.989861 24.408806 C 36.813862 24.064804 36.899197 24.611473 37.999195 25.476807 C 39.099197 26.343475 41.181862 32.915474 41.181862 32.915474 L 41.285862 33.21814 L 41.461861 47.47147 L 42.801861 63.624802 L 41.323196 78.670135 L 38.756531 87.243469 L 35.892529 88.655472 L 22.068529 88.958138 Z"/>
            </g>
            <g id="g68">
                <path id="path70" fill="#5e7075" stroke="none" d="M 26.128658 16.332962 L 35.044659 15.194298 L 35.44466 14.824959 L 24.60466 14.824959 L 15.389994 18.890297 L 11.553994 26.562294 L 18.127327 19.98896 L 17.229994 19.574295 L 27.956659 17.022293 Z"/>
            </g>
            <g id="g72">
                <path id="path74" fill="#3f4d4e" stroke="none" d="M 20.853724 32.84243 C 20.853724 34.297096 20.203058 35.477097 19.399057 35.477097 C 18.596392 35.477097 17.944391 34.297096 17.944391 32.84243 C 17.944391 31.387764 18.596392 30.207764 19.399057 30.207764 C 20.203058 30.207764 20.853724 31.387764 20.853724 32.84243"/>
            </g>
            <g id="g76">
                <path id="path78" fill="#f7f6f8" stroke="none" d="M 19.554663 31.504021 C 19.554663 32.093353 19.047997 32.570686 18.421329 32.570686 C 17.795996 32.570686 17.28933 32.093353 17.28933 31.504021 C 17.28933 30.914688 17.795996 30.437355 18.421329 30.437355 C 19.047997 30.437355 19.554663 30.914688 19.554663 31.504021"/>
            </g>
            <g id="g80">
                <path id="path82" fill="#3f4d4e" stroke="none" d="M 35.677597 32.84243 C 35.677597 34.297096 35.026932 35.477097 34.222931 35.477097 C 33.420265 35.477097 32.768265 34.297096 32.768265 32.84243 C 32.768265 31.387764 33.420265 30.207764 34.222931 30.207764 C 35.026932 30.207764 35.677597 31.387764 35.677597 32.84243"/>
            </g>
            <g id="g84">
                <path id="path86" fill="#f7f6f8" stroke="none" d="M 34.378651 31.504021 C 34.378651 32.093353 33.871983 32.570686 33.245316 32.570686 C 32.619984 32.570686 32.113316 32.093353 32.113316 31.504021 C 32.113316 30.914688 32.619984 30.437355 33.245316 30.437355 C 33.871983 30.437355 34.378651 30.914688 34.378651 31.504021"/>
            </g>
            <g id="g88">
                <g id="g90"/>
                <g id="g102">
                    <clipPath id="clipPath1">
                        <path d="M 1.890926 91.562698 L 51.248264 91.562698 L 51.248264 97.999994 L 1.890926 97.999994 Z"/>
                    </clipPath>
                    <g id="g100" opacity="0.100006" clip-path="url(#clipPath1)">
                        <g id="g98">
                            <path id="path96" fill="#3f4d4e" stroke="none" d="M 51.24839 94.781479 C 51.24839 96.558815 40.199059 98.000145 26.569725 98.000145 C 12.940392 98.000145 1.891059 96.558815 1.891059 94.781479 C 1.891059 93.00415 12.940392 91.562813 26.569725 91.562813 C 40.199059 91.562813 51.24839 93.00415 51.24839 94.781479"/>
                        </g>
                    </g>
                </g>
            </g>
            <g id="g104">
                <path id="path106" fill="#5e7075" stroke="none" d="M 8.283998 48.492432 L 6.518665 50.977764 L -1e-06 73.32843 L 3.146666 72.0271 L 6.786665 52.813766 L 9.171998 52.576431 Z"/>
            </g>
            <g id="g108">
                <path id="path110" fill="#5e7075" stroke="none" d="M 46.755581 45.136024 L 47.60358 47.256023 L 58.548916 38.416023 L 43.575581 45.178688 L 44.211582 47.785355 Z"/>
            </g>
            <g id="g112">
                <g id="g114"/>
                <g id="g126">
                    <clipPath id="clipPath2">
                        <path d="M 11.861588 88.968012 L 21.400263 88.968012 L 21.400263 92.77335 L 11.861588 92.77335 Z"/>
                    </clipPath>
                    <g id="g124" opacity="0.300003" clip-path="url(#clipPath2)">
                        <g id="g122">
                            <path id="path120" fill="#3f4d4e" stroke="none" d="M 13.988394 88.967346 L 11.861727 90.866013 L 15.597727 92.774017 L 21.400393 90.230011 L 16.312393 90.548683 L 14.505727 89.691345 Z"/>
                        </g>
                    </g>
                </g>
            </g>
            <g id="g128">
                <g id="g130"/>
                <g id="g142">
                    <clipPath id="clipPath3">
                        <path d="M 32.501602 89.117345 L 42.569595 89.117345 L 42.569595 92.138666 L 32.501602 92.138666 Z"/>
                    </clipPath>
                    <g id="g140" opacity="0.300003" clip-path="url(#clipPath3)">
                        <g id="g138">
                            <path id="path136" fill="#3f4d4e" stroke="none" d="M 40.449726 89.117744 L 42.569725 90.707077 L 40.927059 92.137749 L 36.05106 91.97908 L 32.501724 89.965744 L 35.839058 90.231079 L 38.753727 89.859077 Z"/>
                        </g>
                    </g>
                </g>
            </g>
            <g id="g144">
                <path id="path146" fill="#ebeaeb" stroke="none" d="M 31.338511 35.609234 C 30.727844 33.529236 27.459845 33.613235 27.043844 33.631897 C 26.627844 33.613235 23.358511 33.529236 22.747845 35.609234 C 22.533178 36.343899 24.771845 38.870567 26.794512 39.338566 C 26.794512 39.338566 26.841179 39.363899 26.86651 39.359898 C 26.890511 39.363899 26.941177 39.338566 26.941177 39.338566 C 28.979845 38.869232 31.55451 36.343899 31.338511 35.609234"/>
            </g>
            <g id="g148">
                <g id="g150"/>
                <g id="g162">
                    <clipPath id="clipPath4">
                        <path d="M 57.569595 18.681351 L 79.200249 18.681351 L 79.200249 41.426674 L 57.569595 41.426674 Z"/>
                    </clipPath>
                    <g id="g160" opacity="0.199997" clip-path="url(#clipPath4)">
                        <g id="g158">
                            <path id="path156" fill="#3f4d4e" stroke="none" d="M 59.059723 38.994415 L 79.13839 18.682419 L 79.199722 19.13575 L 58.533058 41.426414 L 57.570393 40.499748 L 58.519726 39.578415 Z"/>
                        </g>
                    </g>
                </g>
            </g>
            <g id="g940">
                <path id="path942" fill="#b16e5b" stroke="none" d="M 57.10733 39.329346 L 79.144661 18.688011 L 79.189995 19.144012 L 57.572662 40.570679 Z"/>
            </g>
            <g id="g944">
                <path id="path946" fill="#b16e5b" stroke="none" d="M 30.754007 34.750034 C 30.182007 32.79937 27.115341 32.878036 26.726007 32.895363 C 26.33534 32.878036 23.268675 32.79937 22.696674 34.750034 C 22.49534 35.439365 24.595341 37.808701 26.491341 38.248699 C 26.491341 38.248699 26.536674 38.272697 26.559341 38.267365 C 26.582006 38.272697 26.630007 38.248699 26.630007 38.248699 C 28.542007 37.807365 30.956675 35.439365 30.754007 34.750034"/>
            </g>
        </g>
    </g>
</svg>
