<?xml version="1.0" encoding="UTF-8"?>
<!DOCTYPE svg PUBLIC "-//W3C//DTD SVG 1.1//EN" "http://www.w3.org/Graphics/SVG/1.1/DTD/svg11.dtd">
<svg version="1.1" xmlns="http://www.w3.org/2000/svg" xmlns:xlink="http://www.w3.org/1999/xlink" x="0" y="0" width="1038.96" height="140.96" viewBox="0, 0, 1038.96, 140.96">
  <g id="Layer_3">
    <g>
      <path d="M-9.853,-8.187 L1048.813,-8.187 L1048.813,149.147 L-9.853,149.147 L-9.853,-8.187 z" fill="#FFFFFF"/>
      <path d="M-9.853,-8.187 L1048.813,-8.187 L1048.813,149.147 L-9.853,149.147 L-9.853,-8.187 z" fill-opacity="0" stroke="#000000" stroke-width="1"/>
    </g>
  </g>
  <g id="XMLID_2_">
    <g id="XMLID_17_">
      <path d="M98.78,107.68 C98.38,107.68 97.98,107.48 97.78,107.18 C97.28,106.58 97.38,105.78 97.88,105.28 C107.68,96.68 113.18,84.28 113.18,71.38 C113.18,63.48 111.08,55.58 107.08,48.78 C106.68,48.08 106.88,47.28 107.58,46.88 C108.28,46.48 109.08,46.68 109.48,47.38 C113.68,54.68 115.88,62.98 115.88,71.38 C115.88,85.18 109.98,98.28 99.58,107.38 C99.38,107.48 99.08,107.68 98.78,107.68 z" fill="#E0592A" id="XMLID_21_"/>
      <path d="M67.98,119.28 C41.48,119.28 19.98,97.78 19.98,71.28 C19.98,44.78 41.48,23.28 67.98,23.28 C73.38,23.28 78.58,24.18 83.58,25.88 C84.28,26.08 84.68,26.88 84.48,27.68 C84.28,28.38 83.48,28.78 82.68,28.58 C77.98,26.88 72.98,26.08 67.98,26.08 C42.98,26.08 22.78,46.38 22.78,71.28 C22.78,96.18 42.98,116.48 67.98,116.48 C68.78,116.48 69.38,117.08 69.38,117.88 C69.38,118.68 68.68,119.28 67.98,119.28 z" fill="#E0592A" id="XMLID_19_"/>
    </g>
    <g id="XMLID_10_">
      <path d="M188.98,119.28 C166.28,119.28 146.48,103.18 141.98,80.98 C141.78,80.28 142.28,79.48 143.08,79.38 C143.78,79.18 144.58,79.68 144.68,80.48 C148.98,101.38 167.58,116.58 188.98,116.58 C189.78,116.58 190.38,117.18 190.38,117.98 C190.38,118.78 189.78,119.28 188.98,119.28 z" fill="#00ADBB" id="XMLID_16_"/>
      <path d="M219.88,107.58 C219.48,107.58 219.08,107.38 218.88,107.08 C218.38,106.48 218.48,105.68 218.98,105.18 C228.68,96.58 234.28,84.28 234.28,71.28 C234.28,46.38 213.98,26.08 189.08,26.08 C172.98,26.08 157.98,34.78 149.88,48.68 C149.48,49.38 148.68,49.58 147.98,49.18 C147.28,48.78 147.08,47.98 147.48,47.28 C156.08,32.48 171.98,23.28 189.08,23.28 C215.58,23.28 237.08,44.78 237.08,71.28 C237.08,85.08 231.18,98.18 220.88,107.28 C220.48,107.48 220.18,107.58 219.88,107.58 z" fill="#00ADBB" id="XMLID_13_"/>
    </g>
    <g id="XMLID_5_">
      <path d="M166.68,43.38 C166.68,43.48 166.68,43.48 166.68,43.38 C166.18,43.78 166.18,44.38 166.48,44.88 C171.58,52.28 174.58,61.18 174.58,70.68 C174.58,80.58 171.38,89.78 166.08,97.18 C165.78,97.68 165.78,98.28 166.28,98.58 C166.78,98.98 167.48,98.88 167.88,98.38 C173.48,90.58 176.78,80.98 176.78,70.58 C176.78,60.48 173.68,51.18 168.38,43.48 C167.88,43.08 167.18,43.08 166.68,43.38 z" fill="#00829B" id="XMLID_9_"/>
      <path d="M148.98,112.48 C148.68,112.18 148.18,112.08 147.78,112.28 C141.98,114.88 135.58,116.38 128.78,116.38 C121.88,116.38 115.28,114.78 109.38,112.08 C108.98,111.88 108.48,111.98 108.18,112.28 C107.68,112.78 107.78,113.68 108.48,113.98 C114.68,116.88 121.58,118.58 128.88,118.58 C135.98,118.58 142.68,116.98 148.78,114.28 C149.38,113.88 149.58,112.98 148.98,112.48 z" fill="#00829B" id="XMLID_7_"/>
    </g>
    <path d="M91.98,99.08 C91.58,99.08 91.18,98.88 90.88,98.58 C90.68,98.28 68.58,70.38 89.88,42.28 C113.88,10.98 149.58,27.28 149.98,27.48 C150.68,27.78 150.98,28.58 150.68,29.28 C150.38,29.98 149.58,30.28 148.88,29.98 C147.38,29.28 114.68,14.38 92.18,43.98 C72.18,70.28 92.88,96.58 93.08,96.78 C93.58,97.38 93.48,98.28 92.88,98.68 C92.58,98.98 92.28,99.08 91.98,99.08 z" fill="#00829B" id="XMLID_4_"/>
  </g>
  <g id="XMLID_22_">
    <path d="M248.78,71.18 C248.78,64.68 249.98,58.48 252.48,52.68 C254.98,46.88 258.38,41.78 262.68,37.38 C267.08,32.98 272.18,29.58 277.98,26.98 C283.78,24.48 289.98,23.18 296.58,23.18 C303.08,23.18 309.28,24.48 315.08,26.98 C320.88,29.48 325.98,32.98 330.38,37.38 C334.78,41.78 338.18,46.88 340.78,52.68 C343.28,58.48 344.58,64.68 344.58,71.18 C344.58,77.78 343.28,83.98 340.78,89.78 C338.28,95.58 334.78,100.68 330.38,104.98 C325.98,109.28 320.88,112.68 315.08,115.18 C309.28,117.68 303.08,118.88 296.58,118.88 C289.98,118.88 283.78,117.68 277.98,115.18 C272.18,112.68 267.08,109.28 262.78,104.98 C258.48,100.68 255.08,95.58 252.58,89.78 C250.08,83.98 248.78,77.78 248.78,71.18 z M259.88,71.18 C259.88,76.38 260.88,81.18 262.78,85.68 C264.68,90.18 267.28,94.08 270.68,97.48 C274.08,100.88 277.88,103.48 282.38,105.48 C286.88,107.48 291.58,108.38 296.68,108.38 C301.78,108.38 306.58,107.38 310.98,105.48 C315.48,103.48 319.38,100.88 322.68,97.48 C325.98,94.08 328.68,90.18 330.58,85.68 C332.48,81.18 333.48,76.38 333.48,71.18 C333.48,65.98 332.48,61.18 330.58,56.68 C328.68,52.18 326.08,48.28 322.68,44.88 C319.38,41.48 315.48,38.78 310.98,36.88 C306.48,34.88 301.78,33.98 296.68,33.98 C291.58,33.98 286.78,34.98 282.38,36.88 C277.88,38.88 273.98,41.48 270.68,44.88 C267.38,48.28 264.68,52.18 262.78,56.68 C260.88,61.18 259.88,66.08 259.88,71.18 z" fill="#E0592A" id="XMLID_208_"/>
    <path d="M360.58,117.88 L360.58,24.28 L382.68,24.28 C385.68,24.28 389.08,24.78 392.78,25.68 C396.48,26.58 399.98,28.08 403.18,30.18 C406.38,32.28 409.08,34.88 411.18,38.08 C413.28,41.28 414.38,45.18 414.38,49.68 C414.38,57.78 411.98,64.28 407.18,68.98 C402.38,73.78 395.38,76.18 386.28,76.18 L371.68,76.18 L371.68,117.88 L360.58,117.88 z M371.68,65.48 L383.28,65.48 C387.18,65.48 390.48,64.98 392.98,63.98 C395.48,62.98 397.58,61.68 399.08,60.18 C400.58,58.68 401.68,56.98 402.28,55.08 C402.88,53.18 403.18,51.38 403.18,49.68 C403.18,47.68 402.68,45.78 401.68,43.98 C400.68,42.18 399.28,40.58 397.58,39.18 C395.88,37.78 393.78,36.68 391.28,35.88 C388.78,35.08 386.18,34.68 383.48,34.68 L371.68,34.68 L371.68,65.48 z" fill="#E0592A" id="XMLID_205_"/>
    <path d="M427.48,117.88 L427.48,24.28 L485.18,24.28 L485.18,34.88 L438.58,34.88 L438.58,65.48 L479.98,65.48 L479.98,76.08 L438.68,76.08 L438.68,107.38 L487.08,107.38 L487.08,117.98 L427.48,117.98 z" fill="#E0592A" id="XMLID_203_"/>
    <path d="M593.78,24.28 L593.78,122.18 C582.28,109.98 570.88,97.88 559.58,85.78 C548.28,73.78 536.88,61.58 525.38,49.38 C524.98,48.78 524.48,48.18 524.08,47.68 C523.68,47.18 523.28,46.58 522.78,45.98 C522.88,46.68 522.98,47.38 522.98,48.08 C522.98,48.78 523.08,49.48 523.18,50.18 L523.18,117.88 L512.08,117.88 L512.08,19.98 C523.58,32.48 534.98,44.88 546.28,57.08 C557.58,69.38 568.98,81.68 580.48,94.18 C580.88,94.78 581.38,95.38 581.78,95.88 C582.18,96.38 582.58,96.98 583.08,97.58 C582.98,96.88 582.88,96.18 582.88,95.48 C582.88,94.78 582.78,94.08 582.68,93.38 L582.68,24.28 L593.78,24.28 z" fill="#E0592A" id="XMLID_201_"/>
    <path d="M683.28,105.58 L687.78,112.28 C684.18,114.38 680.38,115.98 676.38,117.18 C672.28,118.38 667.98,118.98 663.48,118.98 C656.88,118.98 650.68,117.78 644.88,115.28 C639.08,112.78 633.98,109.38 629.68,105.08 C625.38,100.78 621.98,95.68 619.48,89.88 C616.98,84.08 615.78,77.88 615.78,71.28 C615.78,64.68 616.98,58.48 619.48,52.58 C621.98,46.78 625.38,41.68 629.68,37.28 C633.98,32.98 639.08,29.58 644.88,26.98 C650.68,24.48 656.88,23.18 663.48,23.18 C667.98,23.18 672.38,23.78 676.38,24.88 C680.48,26.08 684.28,27.68 687.98,29.78 C687.28,30.98 686.48,32.08 685.68,33.18 C684.88,34.28 684.08,35.48 683.28,36.58 C677.28,32.88 670.68,31.08 663.48,31.08 C658.08,31.08 652.98,32.08 648.18,34.18 C643.38,36.28 639.28,39.18 635.68,42.78 C632.08,46.48 629.28,50.68 627.18,55.58 C625.08,60.48 624.08,65.58 624.08,71.08 C624.08,76.58 625.08,81.78 627.18,86.58 C629.28,91.38 632.08,95.58 635.58,99.18 C639.18,102.78 643.28,105.68 648.08,107.78 C652.88,109.88 657.98,110.88 663.38,110.88 C667.08,110.88 670.48,110.38 673.78,109.48 C677.08,108.78 680.28,107.38 683.28,105.58 z" fill="#00ADBB" id="XMLID_199_"/>
    <path d="M708.58,117.88 L708.58,24.28 L716.88,24.28 L716.88,66.78 L770.88,66.78 L770.88,24.28 L779.28,24.28 C779.28,39.98 779.28,55.58 779.18,71.08 C779.18,86.58 779.08,102.18 779.08,117.88 L770.78,117.88 L770.78,74.68 L716.78,74.68 L716.78,117.88 L708.58,117.88 z" fill="#00ADBB" id="XMLID_197_"/>
    <path d="M881.78,117.88 L873.38,117.88 C870.58,111.48 867.88,104.98 865.18,98.58 C862.48,92.08 859.78,85.68 856.98,79.28 L823.38,79.28 C820.68,85.68 817.98,92.18 815.28,98.58 C812.58,105.08 809.78,111.48 807.08,117.88 L798.78,117.88 C805.78,101.48 812.68,85.18 819.48,68.88 C826.38,52.68 833.28,36.28 840.18,19.88 C847.18,36.28 854.08,52.58 860.88,68.88 C867.88,85.18 874.88,101.48 881.78,117.88 z M841.48,42.58 L840.88,40.48 L840.28,38.38 C838.48,43.98 836.38,49.48 833.98,54.98 C831.58,60.38 829.18,65.88 826.88,71.28 L853.48,71.28 C851.38,66.48 849.38,61.68 847.48,56.88 C845.58,52.18 843.58,47.38 841.48,42.58 z" fill="#00ADBB" id="XMLID_194_"/>
    <path d="M903.18,24.28 L911.58,24.28 L911.58,117.88 L903.18,117.88 L903.18,24.28 z" fill="#00ADBB" id="XMLID_192_"/>
    <path d="M1019.98,24.28 L1019.98,122.18 C1007.98,108.88 996.18,95.68 984.38,82.68 C972.58,69.58 960.68,56.48 948.68,43.18 C948.28,42.58 947.78,41.98 947.38,41.48 C946.98,40.98 946.58,40.38 946.08,39.78 C946.18,40.48 946.28,41.18 946.28,41.88 C946.28,42.58 946.38,43.28 946.48,43.98 L946.48,117.98 L938.18,117.98 L938.18,19.98 C950.08,33.48 961.98,46.78 973.78,60.08 C985.58,73.38 997.48,86.78 1009.48,100.18 C1009.88,100.78 1010.38,101.38 1010.78,101.88 C1011.18,102.38 1011.58,102.98 1012.08,103.58 C1011.98,102.88 1011.88,102.18 1011.88,101.48 C1011.88,100.78 1011.78,100.08 1011.68,99.38 L1011.68,24.28 L1019.98,24.28 z" fill="#00ADBB" id="XMLID_190_"/>
  </g>
</svg>
