<?xml version="1.0" encoding="UTF-8"?>
<!DOCTYPE svg PUBLIC "-//W3C//DTD SVG 1.1//EN" "http://www.w3.org/Graphics/SVG/1.1/DTD/svg11.dtd">
<svg version="1.1" xmlns="http://www.w3.org/2000/svg" xmlns:xlink="http://www.w3.org/1999/xlink" x="0" y="0" width="450" height="450" viewBox="0, 0, 450, 450">
  <g id="Layer_1">
    <g>
      <path d="M169.558,292.961 C168.487,292.969 167.525,292.309 167.146,291.308 C166.767,290.306 167.051,289.174 167.858,288.471 C197.993,261.923 205.238,217.813 185.178,183.021 C184.572,181.806 185.015,180.329 186.19,179.649 C187.365,178.969 188.867,179.32 189.618,180.451 C210.92,217.357 203.233,264.165 171.248,292.321 C170.783,292.735 170.181,292.963 169.558,292.961 z M112.148,314.631 C76.614,314.655 44.435,293.643 30.167,261.099 C15.898,228.555 22.246,190.652 46.339,164.532 C70.432,138.413 107.7,129.032 141.288,140.631 C142.601,141.113 143.288,142.556 142.834,143.879 C142.379,145.202 140.95,145.918 139.618,145.491 C107.954,134.542 72.811,143.378 50.091,168.002 C27.371,192.625 21.385,228.364 34.841,259.047 C48.298,289.73 78.644,309.535 112.148,309.501 C113.103,309.441 114.011,309.917 114.507,310.735 C115.002,311.553 115.002,312.579 114.507,313.397 C114.011,314.215 113.103,314.691 112.148,314.631 z" fill="#E0592A"/>
      <path d="M337.868,314.631 C295.458,314.542 258.903,284.767 250.238,243.251 C249.921,242.307 250.178,241.264 250.898,240.576 C251.618,239.888 252.671,239.677 253.6,240.036 C254.529,240.394 255.167,241.258 255.238,242.251 C263.39,281.399 297.851,309.484 337.838,309.571 C339.192,309.656 340.248,310.779 340.248,312.136 C340.248,313.493 339.192,314.616 337.838,314.701 z M395.328,292.911 C394.592,292.913 393.892,292.595 393.408,292.041 C392.956,291.532 392.725,290.865 392.766,290.185 C392.808,289.506 393.118,288.871 393.628,288.421 C418.66,266.321 428.29,231.53 418.184,199.704 C408.079,167.878 380.142,145.015 346.946,141.403 C313.75,137.792 281.551,154.113 264.838,183.021 C264.113,184.216 262.566,184.613 261.355,183.914 C260.145,183.215 259.715,181.676 260.388,180.451 C278.093,149.728 312.273,132.361 347.526,136.177 C382.78,139.993 412.452,164.272 423.173,198.072 C433.893,231.872 423.638,268.814 397.028,292.251 C396.562,292.672 395.956,292.907 395.328,292.911 z" fill="#00ADBB"/>
      <path d="M296.228,173.251 C295.425,173.917 295.268,175.088 295.868,175.941 C316.202,205.43 315.846,244.507 294.978,273.621 C294.369,274.464 294.508,275.634 295.298,276.311 C295.723,276.677 296.283,276.848 296.84,276.781 C297.397,276.715 297.901,276.417 298.228,275.961 C320.097,245.449 320.469,204.496 299.158,173.591 C298.829,173.136 298.325,172.841 297.768,172.776 C297.211,172.712 296.652,172.884 296.228,173.251 z M263.278,301.971 C262.688,301.404 261.813,301.254 261.068,301.591 C238.312,312.001 212.126,311.854 189.488,301.191 C188.732,300.835 187.835,300.987 187.238,301.571 C186.772,302.025 186.556,302.678 186.66,303.321 C186.763,303.964 187.173,304.516 187.758,304.801 C211.49,316.012 238.962,316.166 262.818,305.221 C263.411,304.938 263.827,304.381 263.931,303.732 C264.034,303.084 263.813,302.425 263.338,301.971 z" fill="#00829B"/>
      <path d="M156.998,277.071 C156.222,277.071 155.488,276.722 154.998,276.121 C154.578,275.601 113.338,223.491 153.138,171.231 C197.718,112.691 264.338,143.231 265.008,143.501 C265.894,143.856 266.51,144.674 266.608,145.623 C266.706,146.573 266.269,147.499 265.474,148.027 C264.678,148.555 263.656,148.599 262.818,148.141 C260.248,146.931 199.258,119.141 157.218,174.351 C119.838,223.431 158.588,272.351 158.988,272.891 C159.878,273.993 159.708,275.608 158.608,276.501 C158.151,276.867 157.584,277.068 156.998,277.071 z" fill="#00829B"/>
    </g>
  </g>
</svg>
