<?xml version="1.0" encoding="utf-8"?>
<!-- Generator: Adobe Illustrator 24.1.1, SVG Export Plug-In . SVG Version: 6.00 Build 0)  -->
<svg version="1.1" id="Layer_1" xmlns="http://www.w3.org/2000/svg" xmlns:xlink="http://www.w3.org/1999/xlink" x="0px" y="0px"
	 viewBox="0 0 217.1 96.2" style="enable-background:new 0 0 217.1 96.2;" xml:space="preserve">
<style type="text/css">
	.st0{fill:#E0592A;}
	.st1{fill:#00ADBB;}
	.st2{fill:#00829B;}
</style>
<g id="XMLID_2_">
	<g id="XMLID_17_">
		<g id="XMLID_20_">
			<path id="XMLID_21_" class="st0" d="M78.8,84.6c-0.4,0-0.8-0.2-1-0.5c-0.5-0.6-0.4-1.4,0.1-1.9c9.8-8.6,15.3-21,15.3-33.9
				c0-7.9-2.1-15.8-6.1-22.6c-0.4-0.7-0.2-1.5,0.5-1.9s1.5-0.2,1.9,0.5c4.2,7.3,6.4,15.6,6.4,24c0,13.8-5.9,26.9-16.3,36
				C79.4,84.4,79.1,84.6,78.8,84.6z"/>
		</g>
		<g id="XMLID_18_">
			<path id="XMLID_19_" class="st0" d="M48,96.2c-26.5,0-48-21.5-48-48s21.5-48,48-48c5.4,0,10.6,0.9,15.6,2.6
				c0.7,0.2,1.1,1,0.9,1.8c-0.2,0.7-1,1.1-1.8,0.9C58,3.8,53,3,48,3C23,3,2.8,23.3,2.8,48.2S23,93.4,48,93.4c0.8,0,1.4,0.6,1.4,1.4
				S48.7,96.2,48,96.2z"/>
		</g>
	</g>
	<g id="XMLID_10_">
		<g id="XMLID_15_">
			<path id="XMLID_16_" class="st1" d="M169,96.2c-22.7,0-42.5-16.1-47-38.3c-0.2-0.7,0.3-1.5,1.1-1.6c0.7-0.2,1.5,0.3,1.6,1.1
				c4.3,20.9,22.9,36.1,44.3,36.1c0.8,0,1.4,0.6,1.4,1.4S169.8,96.2,169,96.2z"/>
		</g>
		<g id="XMLID_12_">
			<path id="XMLID_13_" class="st1" d="M199.9,84.5c-0.4,0-0.8-0.2-1-0.5c-0.5-0.6-0.4-1.4,0.1-1.9c9.7-8.6,15.3-20.9,15.3-33.9
				C214.3,23.3,194,3,169.1,3C153,3,138,11.7,129.9,25.6c-0.4,0.7-1.2,0.9-1.9,0.5s-0.9-1.2-0.5-1.9c8.6-14.8,24.5-24,41.6-24
				c26.5,0,48,21.5,48,48c0,13.8-5.9,26.9-16.2,36C200.5,84.4,200.2,84.5,199.9,84.5z"/>
		</g>
	</g>
	<g id="XMLID_5_">
		<g id="XMLID_8_">
			<path id="XMLID_9_" class="st2" d="M146.7,20.3C146.7,20.4,146.7,20.4,146.7,20.3c-0.5,0.4-0.5,1-0.2,1.5
				c5.1,7.4,8.1,16.3,8.1,25.8c0,9.9-3.2,19.1-8.5,26.5c-0.3,0.5-0.3,1.1,0.2,1.4l0,0c0.5,0.4,1.2,0.3,1.6-0.2
				c5.6-7.8,8.9-17.4,8.9-27.8c0-10.1-3.1-19.4-8.4-27.1C147.9,20,147.2,20,146.7,20.3z"/>
		</g>
		<g id="XMLID_6_">
			<path id="XMLID_7_" class="st2" d="M129,89.4c-0.3-0.3-0.8-0.4-1.2-0.2c-5.8,2.6-12.2,4.1-19,4.1c-6.9,0-13.5-1.6-19.4-4.3
				c-0.4-0.2-0.9-0.1-1.2,0.2l0,0c-0.5,0.5-0.4,1.4,0.3,1.7c6.2,2.9,13.1,4.6,20.4,4.6c7.1,0,13.8-1.6,19.9-4.3
				C129.4,90.8,129.6,89.9,129,89.4L129,89.4z"/>
		</g>
	</g>
	<g id="XMLID_3_">
		<path id="XMLID_4_" class="st2" d="M72,76c-0.4,0-0.8-0.2-1.1-0.5c-0.2-0.3-22.3-28.2-1-56.3c24-31.3,59.7-15,60.1-14.8
			c0.7,0.3,1,1.1,0.7,1.8s-1.1,1-1.8,0.7c-1.5-0.7-34.2-15.6-56.7,14c-20,26.3,0.7,52.6,0.9,52.8c0.5,0.6,0.4,1.5-0.2,1.9
			C72.6,75.9,72.3,76,72,76z"/>
	</g>
</g>
</svg>
