<?xml version="1.0" encoding="UTF-8"?>
<svg width="4200px" height="3150px" viewBox="0 0 4200 3150" xmlns="http://www.w3.org/2000/svg" xmlns:xlink="http://www.w3.org/1999/xlink" version="1.1">
 <!-- Generated by Pixelmator Pro 1.7.1 -->
 <g id="world-map-146505">
  <path id="Path" d="M687 574 C410.86 574 187 797.86 187 1074 L187 2077 C187 2353.14 410.86 2577 687 2577 L3543 2577 C3819.14 2577 4043 2353.14 4043 2077 L4043 1074 C4043 797.86 3819.14 574 3543 574 Z" fill="#00839b" fill-opacity="1" stroke="none"/>
  <path id="Path-1" d="M1893.529 1258.486 L1878.016 1279.162 1867.68 1289.502 1847.005 1300.871 1843.899 1310.178 C1843.899 1310.178 1835.626 1318.451 1836.664 1323.623 1837.703 1328.796 1837.703 1338.098 1837.703 1338.098 1837.703 1338.098 1823.228 1351.538 1817.022 1355.673 1810.816 1359.807 1802.543 1369.113 1802.543 1369.113 1802.543 1369.113 1797.375 1375.319 1794.275 1377.386 1791.174 1379.454 1786.006 1385.655 1781.867 1391.861 1777.729 1398.067 1773.594 1402.197 1771.527 1405.297 1769.46 1408.398 1763.254 1415.637 1760.154 1427.011 1757.053 1438.385 1748.78 1451.826 1748.78 1451.826 L1746.708 1456.993 C1747.746 1474.573 1747.742 1477.674 1749.813 1483.88 1751.885 1490.086 1753.952 1488.009 1751.88 1501.455 1749.813 1514.891 1749.813 1520.063 1747.746 1526.269 1745.679 1532.475 1739.473 1543.84 1737.411 1549.017 1735.348 1554.194 1741.545 1563.487 1741.545 1563.487 1741.545 1563.487 1744.65 1576.932 1742.578 1580.033 1740.511 1583.138 1743.612 1589.339 1743.612 1589.339 1743.612 1589.339 1756.019 1596.574 1760.158 1600.713 1764.297 1604.852 1771.532 1611.053 1772.565 1614.154 1773.599 1617.255 1781.872 1631.734 1782.906 1634.834 1783.939 1637.935 1792.212 1649.304 1794.279 1652.409 1796.346 1655.515 1806.687 1666.888 1806.687 1666.888 1806.687 1666.888 1820.127 1677.219 1823.233 1681.358 1826.338 1685.497 1835.64 1687.56 1838.736 1690.66 1841.841 1693.761 1849.076 1692.723 1853.211 1695.833 1857.345 1698.943 1865.618 1693.761 1869.757 1695.833 1873.896 1697.904 1885.269 1693.766 1888.37 1691.698 1891.471 1689.631 1898.706 1682.396 1903.878 1685.492 1909.05 1688.589 1912.146 1685.492 1916.285 1686.526 1920.424 1687.56 1926.621 1682.396 1930.755 1682.396 1934.889 1682.396 1945.229 1678.258 1948.33 1678.258 1951.431 1678.258 1961.776 1672.047 1965.914 1672.047 1970.053 1672.047 1975.216 1667.922 1980.384 1669.984 1985.552 1672.047 1983.485 1665.855 1992.792 1668.951 2002.098 1672.047 2005.199 1668.951 2008.299 1672.047 2011.405 1675.152 2015.544 1672.056 2018.644 1676.19 2021.745 1680.32 2026.913 1683.421 2027.946 1687.56 2028.98 1691.698 2035.181 1695.837 2035.181 1695.837 L2041.387 1696.866 C2041.387 1696.866 2049.665 1690.665 2051.727 1694.804 2053.79 1698.943 2063.101 1697.909 2063.101 1697.909 L2072.403 1708.245 2075.508 1712.379 C2075.508 1712.379 2081.714 1728.925 2080.676 1735.126 2079.638 1741.328 2079.642 1754.768 2076.542 1757.869 2073.441 1760.974 2071.374 1774.415 2071.374 1774.415 2071.374 1774.415 2067.235 1778.549 2076.542 1786.823 2085.848 1795.096 2092.054 1802.33 2095.155 1806.46 2098.26 1810.599 2106.533 1821.977 2107.558 1829.212 2108.596 1836.447 2110.663 1840.581 2114.802 1849.888 2118.941 1859.194 2124.104 1860.228 2125.137 1870.573 2126.171 1880.918 2128.238 1880.913 2127.205 1888.143 2126.171 1895.383 2123.07 1896.416 2126.171 1901.584 2129.272 1906.752 2133.401 1916.063 2132.377 1919.164 2131.343 1922.265 2129.272 1935.705 2129.272 1935.705 L2127.205 1941.911 2117.903 1959.495 2111.697 1968.793 C2109.629 1976.028 2105.495 1983.267 2106.529 1993.608 2107.558 2003.948 2101.361 2003.943 2109.629 2014.279 2117.898 2024.614 2122.032 2035.997 2127.205 2045.304 2132.377 2054.606 2135.478 2063.913 2136.507 2070.114 2137.545 2076.32 2141.679 2078.392 2143.746 2086.66 2145.813 2094.928 2146.847 2099.063 2146.847 2104.235 2146.847 2109.407 2145.809 2122.848 2147.885 2125.949 2149.961 2129.05 2150.986 2138.361 2152.019 2142.495 2153.053 2146.634 2148.914 2147.667 2155.12 2154.907 2161.326 2162.146 2165.46 2166.276 2169.594 2171.448 2173.728 2176.621 2172.695 2174.549 2175.8 2181.789 2178.905 2189.028 2183.035 2193.167 2184.073 2199.364 2185.111 2205.561 2186.136 2221.073 2189.241 2228.313 2192.346 2235.552 2196.476 2242.792 2196.476 2242.792 2196.476 2242.792 2207.854 2250.026 2211.988 2248.993 2216.118 2247.959 2224.396 2238.662 2230.602 2241.758 2236.808 2244.859 2241.975 2241.758 2247.143 2241.758 2252.311 2241.758 2257.483 2235.552 2262.656 2235.552 2267.828 2235.552 2275.058 2227.279 2279.202 2229.351 2283.345 2231.422 2288.499 2227.274 2293.672 2222.106 2298.844 2216.943 2301.945 2212.809 2311.247 2204.536 2320.549 2196.263 2319.52 2196.259 2325.721 2191.091 2331.923 2185.923 2338.133 2174.544 2345.368 2172.478 2352.603 2170.41 2354.67 2163.18 2356.737 2158.008 2358.804 2152.835 2359.838 2149.734 2362.943 2145.596 2366.048 2141.457 2363.977 2146.643 2369.149 2133.193 2374.322 2119.743 2380.532 2114.584 2385.7 2111.479 2390.867 2108.374 2393.968 2102.177 2397.069 2101.139 2400.169 2100.101 2405.342 2104.24 2403.275 2094.933 2401.212 2085.631 2403.275 2072.19 2401.212 2069.089 2399.15 2065.989 2396.035 2076.32 2397.073 2060.807 2398.112 2045.295 2409.481 2029.791 2409.481 2029.791 2409.481 2029.791 2424.989 2010.149 2430.161 2007.048 2435.333 2003.948 2436.362 2000.847 2443.606 1996.708 2450.837 1992.579 2466.349 1982.239 2466.349 1977.066 2466.349 1971.894 2472.555 1958.453 2472.555 1955.348 2472.555 1952.242 2472.555 1949.146 2470.493 1931.567 2468.43 1913.987 2472.555 1918.126 2466.354 1901.584 2460.153 1885.043 2459.11 1864.362 2454.98 1859.194 2450.851 1854.027 2452.908 1840.577 2452.908 1836.447 2452.908 1832.318 2460.153 1821.973 2463.253 1817.838 2466.354 1813.7 2479.795 1797.153 2479.795 1797.153 2479.795 1797.153 2500.47 1773.377 2507.71 1762.008 2514.949 1750.63 2522.185 1740.294 2527.352 1736.16 2532.52 1732.026 2544.932 1722.71 2552.167 1712.374 2559.402 1702.039 2573.881 1682.396 2574.919 1679.286 2575.948 1676.19 2584.216 1665.85 2584.216 1665.85 2584.216 1665.85 2595.59 1652.405 2597.662 1645.17 2599.724 1637.93 2610.06 1597.608 2607.993 1599.675 2605.926 1601.742 2593.523 1603.809 2589.384 1604.843 2585.254 1605.881 2595.595 1610.01 2565.603 1607.948 2535.612 1605.885 2520.117 1611.049 2520.117 1611.049 2510.806 1608.977 2503.571 1619.317 2500.466 1604.843 2497.361 1590.368 2495.294 1582.1 2489.097 1571.76 2482.9 1561.42 2478.752 1557.285 2469.455 1543.84 2460.153 1530.404 2461.177 1536.6 2452.904 1526.269 2444.631 1515.938 2442.564 1519.025 2437.396 1505.589 2432.228 1492.148 2428.094 1497.321 2421.888 1478.707 2415.682 1460.094 2411.548 1458.022 2408.447 1447.687 2405.346 1437.351 2401.212 1434.241 2399.141 1424.939 2397.073 1415.633 2373.297 1368.075 2370.192 1364.97 2367.086 1361.874 2361.919 1345.323 2362.952 1348.428 2363.99 1351.529 2378.465 1361.869 2378.465 1361.869 2378.465 1361.869 2386.733 1358.764 2389.839 1358.764 2392.944 1358.764 2405.346 1370.142 2405.346 1374.272 2405.346 1378.402 2427.07 1398.058 2432.233 1412.532 2437.401 1427.006 2443.616 1437.347 2444.64 1441.481 2445.664 1445.615 2456.014 1462.161 2460.153 1468.367 2464.292 1474.573 2477.723 1486.976 2479.79 1493.182 2481.857 1499.388 2501.509 1520.063 2501.509 1533.504 2501.509 1546.945 2510.806 1564.52 2511.844 1568.654 2512.882 1572.789 2531.487 1577.966 2531.487 1577.966 L2556.306 1571.76 C2556.306 1571.76 2593.523 1547.974 2597.662 1547.974 2601.801 1547.974 2634.888 1532.466 2634.888 1532.466 2634.888 1532.466 2648.324 1520.063 2657.626 1512.828 2666.929 1505.594 2677.273 1492.153 2679.345 1485.942 2681.417 1479.732 2685.546 1478.707 2693.815 1469.396 2702.083 1460.085 2713.462 1450.787 2706.227 1444.582 2698.992 1438.376 2694.848 1440.447 2684.513 1430.107 2674.177 1419.767 2675.206 1421.839 2667.967 1408.393 2660.727 1394.957 2669 1379.444 2653.488 1394.957 2637.975 1410.469 2644.186 1414.599 2628.673 1417.709 2613.17 1420.805 2606.959 1431.145 2599.724 1420.805 2592.49 1410.465 2585.254 1416.671 2581.111 1401.158 2576.968 1385.646 2573.872 1384.612 2572.843 1378.415 2571.813 1372.219 2572.843 1372.209 2564.57 1356.697 2556.296 1341.184 2562.502 1317.408 2567.67 1330.849 2572.838 1344.29 2581.111 1346.357 2594.557 1355.663 2607.993 1364.965 2614.203 1372.209 2626.606 1373.243 2639.013 1374.272 2649.354 1373.243 2651.421 1375.306 2653.488 1377.368 2655.555 1374.277 2660.727 1376.339 2665.9 1378.402 2667.958 1373.243 2670.029 1381.507 2672.101 1389.771 2683.47 1390.814 2688.638 1395.981 2693.805 1401.149 2693.81 1399.087 2707.256 1401.149 2720.701 1403.212 2739.314 1403.221 2739.314 1403.221 L2758.952 1402.183 2781.699 1404.245 C2781.699 1404.245 2798.25 1413.552 2802.38 1413.552 2806.51 1413.552 2807.548 1424.93 2817.888 1431.131 2828.228 1437.333 2830.295 1438.366 2836.496 1445.606 2842.698 1452.845 2841.669 1455.946 2849.937 1463.181 2858.206 1470.416 2871.66 1462.152 2873.728 1459.056 2875.785 1455.951 2886.125 1450.783 2884.067 1459.056 2882.01 1467.329 2894.399 1464.219 2891.298 1483.871 2888.197 1503.522 2886.125 1498.34 2891.298 1511.786 2896.47 1525.231 2919.213 1566.583 2920.251 1578.99 2921.29 1591.397 2927.486 1587.263 2928.52 1598.641 2929.553 1610.02 2935.755 1614.145 2935.755 1622.418 2935.755 1630.691 2942.999 1632.753 2944.028 1638.964 2945.071 1645.17 2956.439 1639.993 2959.54 1638.964 2962.646 1637.926 2977.115 1624.485 2977.115 1624.485 2977.115 1624.485 2983.33 1622.422 2982.288 1612.078 2981.245 1601.733 2982.288 1603.809 2982.288 1588.301 2982.288 1572.793 2976.086 1572.793 2979.187 1557.29 2982.288 1541.786 2990.556 1532.471 2992.628 1525.236 2994.7 1518.001 3002.968 1505.594 3007.098 1504.555 3011.227 1503.517 3033.984 1492.153 3039.156 1484.909 3044.329 1477.665 3052.597 1469.401 3060.87 1461.132 3069.144 1452.864 3083.613 1442.524 3086.719 1445.624 3089.823 1448.725 3088.786 1447.691 3093.958 1447.691 3099.13 1447.691 3108.432 1451.83 3115.667 1452.864 3122.907 1453.897 3137.386 1471.472 3140.487 1480.779 3143.587 1490.086 3141.52 1488.014 3152.894 1501.459 3164.268 1514.896 3174.608 1506.623 3174.608 1523.169 3174.608 1539.715 3174.608 1538.677 3179.78 1544.883 3184.952 1551.089 3191.149 1533.509 3197.351 1535.581 3203.552 1537.652 3204.585 1533.513 3209.753 1550.055 3214.921 1566.597 3218.022 1566.601 3219.064 1583.143 3220.093 1599.684 3218.026 1584.176 3218.026 1597.612 3218.026 1611.058 3216.988 1612.091 3219.064 1624.494 3221.141 1636.897 3228.357 1641.045 3227.333 1643.112 3227.333 1643.112 3233.534 1625.537 3231.463 1613.125 3229.391 1600.713 3231.463 1583.147 3236.635 1577.979 3241.807 1572.812 3246.98 1567.639 3251.109 1581.08 3255.248 1594.516 3257.315 1584.181 3266.617 1599.689 3275.928 1615.201 3284.197 1612.091 3285.23 1619.331 3286.264 1626.57 3291.446 1627.609 3298.671 1633.805 3305.911 1640.011 3312.112 1632.776 3320.385 1626.57 3328.658 1620.365 3351.401 1597.617 3352.444 1588.31 3353.473 1579.008 3362.78 1581.071 3346.233 1557.299 3329.687 1533.527 3329.687 1525.245 3312.112 1510.771 3294.546 1496.296 3284.201 1495.263 3297.647 1476.649 3311.092 1458.036 3317.294 1445.633 3325.562 1450.806 3333.831 1455.978 3348.301 1454.936 3348.301 1475.62 3348.301 1496.305 3344.166 1519.044 3358.641 1494.229 3373.115 1469.415 3380.359 1454.94 3376.216 1459.083 3372.072 1463.227 3385.522 1450.81 3385.522 1450.81 3385.522 1450.81 3386.561 1441.504 3404.14 1437.37 3421.72 1433.235 3426.879 1431.164 3433.089 1428.063 3439.29 1424.958 3456.87 1404.277 3459.971 1394.975 3463.071 1385.673 3471.344 1369.127 3469.277 1361.892 3467.21 1354.657 3456.865 1319.503 3454.798 1320.532 3452.736 1321.57 3453.769 1321.57 3440.333 1307.095 3426.883 1292.621 3417.581 1282.281 3415.514 1276.075 3413.447 1269.869 3408.274 1268.835 3414.476 1260.567 3420.677 1252.298 3423.787 1253.332 3424.821 1246.093 3425.854 1238.853 3434.118 1232.652 3418.61 1237.824 3403.102 1242.996 3414.476 1239.896 3401.035 1238.862 3387.594 1237.828 3352.444 1246.097 3370.024 1224.388 3387.603 1202.678 3392.757 1189.238 3395.863 1189.238 3398.968 1189.238 3414.48 1171.658 3415.509 1188.199 3416.548 1204.741 3422.744 1200.602 3423.782 1210.942 3424.821 1221.282 3445.496 1199.573 3445.496 1199.573 3445.496 1199.573 3452.731 1201.64 3457.899 1206.808 3463.067 1211.976 3463.071 1228.522 3463.071 1228.522 3463.071 1228.522 3458.937 1223.35 3470.311 1231.623 3481.685 1239.896 3494.087 1235.757 3494.087 1253.337 3494.087 1270.916 3494.087 1271.95 3501.327 1276.084 3508.566 1280.218 3515.797 1278.156 3522.012 1272.983 3528.227 1267.811 3538.549 1249.202 3538.549 1249.202 3538.549 1249.202 3539.582 1241.963 3523.041 1231.623 3506.499 1221.282 3496.159 1214.052 3489.962 1208.88 3483.766 1203.707 3485.823 1188.204 3492.02 1181.993 3498.217 1175.783 3501.327 1172.687 3499.26 1164.418 3497.192 1156.15 3502.365 1149.939 3517.873 1150.973 3533.381 1152.007 3536.482 1149.944 3536.482 1149.944 3536.482 1149.944 3539.592 1152.007 3539.592 1145.805 3539.592 1139.604 3559.229 1110.65 3554.057 1110.65 3548.885 1110.65 3555.104 1103.416 3551.99 1092.042 3548.875 1080.668 3562.33 1063.093 3550.96 1054.82 3539.592 1046.547 3536.482 1042.408 3529.247 1030.005 3522.012 1017.603 3523.036 1015.531 3496.159 1012.426 3469.282 1009.32 3456.87 1018.632 3450.664 1010.363 3444.458 1002.095 3441.362 1022.766 3437.228 997.951 3433.094 973.137 3443.434 956.591 3443.434 956.591 3443.434 956.591 3459.975 946.255 3464.105 939.015 3468.235 931.776 3484.781 928.675 3498.235 933.848 3511.69 939.02 3531.314 937.982 3547.865 941.092 3564.406 944.188 3563.373 954.528 3571.646 941.092 3579.914 927.642 3571.646 921.445 3577.847 914.206 3584.048 906.966 3591.288 895.592 3596.456 902.827 3601.623 910.071 3611.977 917.302 3620.25 907.995 3628.519 898.693 3631.62 897.659 3631.62 897.659 L3635.745 901.798 C3635.745 901.798 3645.051 896.621 3645.051 905.923 3645.051 915.234 3654.362 925.575 3649.19 932.81 3644.018 940.044 3636.787 939.015 3636.787 956.591 3636.787 974.166 3636.787 971.07 3648.152 985.549 3659.53 1000.018 3666.765 987.611 3668.832 1003.124 3670.899 1018.636 3672.962 1015.535 3684.345 1025.871 3695.728 1036.207 3693.642 1036.207 3701.92 1042.413 3710.197 1048.619 3714.332 1054.824 3714.332 1044.484 3714.332 1034.144 3715.365 1028.977 3714.332 1019.67 3713.289 1010.368 3722.605 1003.124 3716.39 987.616 3710.175 972.108 3715.361 973.141 3702.953 961.768 3690.546 950.394 3682.269 963.839 3678.143 947.293 3674.018 930.747 3697.781 923.512 3703.992 921.445 3710.202 919.378 3719.49 906.971 3721.557 915.244 3723.625 923.517 3706.054 953.499 3736.041 921.445 3766.028 889.391 3752.583 902.836 3752.583 902.836 3752.583 902.836 3768.091 900.769 3771.191 902.836 3774.287 904.908 3782.574 893.53 3779.459 894.568 3776.345 895.606 3746.386 878.022 3746.386 878.022 L3724.663 865.619 C3724.663 865.619 3731.907 860.447 3737.074 861.485 3742.242 862.523 3743.285 851.145 3748.458 850.106 3753.63 849.068 3788.775 857.351 3796.02 861.485 3803.263 865.619 3829.098 866.653 3825.993 864.585 3822.887 862.519 3806.355 850.111 3805.317 845.972 3804.288 841.838 3768.095 833.565 3756.726 834.599 3745.348 835.628 3735.017 838.728 3725.71 835.628 3716.403 832.527 3702.963 824.254 3695.723 824.254 3688.483 824.254 3597.503 806.679 3593.369 807.712 3589.235 808.746 3583.024 828.388 3579.923 825.287 3576.823 822.187 3571.655 822.182 3557.171 818.048 3542.688 813.914 3523.054 810.808 3497.202 808.746 3471.349 806.683 3453.788 810.813 3446.548 802.54 3439.309 794.267 3423.805 797.372 3406.226 796.334 3388.651 795.305 3367.97 796.334 3358.664 796.334 3349.357 796.334 3327.652 795.305 3322.48 794.267 3317.308 793.229 3311.106 785.994 3304.905 784.965 3298.694 783.927 3299.728 781.864 3287.325 779.797 3274.923 777.73 3275.951 764.289 3271.817 775.658 3267.683 787.037 3269.746 783.931 3263.544 788.065 3257.343 792.2 3251.137 800.473 3246.998 800.473 3242.859 800.473 3226.327 801.506 3223.217 799.439 3220.107 797.372 3214.944 795.305 3204.604 795.305 3194.264 795.305 3194.264 796.334 3180.823 794.267 3167.382 792.2 3157.042 793.229 3144.634 787.032 3132.227 780.835 3132.227 776.692 3121.887 777.725 3111.547 778.759 3111.556 775.658 3097.072 775.658 3082.589 775.658 3065.028 783.931 3055.716 784.965 3046.419 785.998 3025.739 783.927 3018.499 780.826 3011.26 777.725 3009.192 770.49 2982.306 773.586 2955.424 776.692 2939.917 776.692 2945.084 768.419 2950.252 760.146 2956.458 751.877 2959.559 750.844 2962.664 749.81 2969.894 744.642 2964.722 742.575 2959.559 740.503 2954.386 737.407 2941.984 736.369 2929.581 735.331 2930.601 740.503 2911.997 738.436 2893.393 736.369 2922.337 731.201 2884.086 732.235 2845.831 733.273 2836.524 736.369 2832.39 736.369 2828.256 736.369 2823.078 728.101 2812.743 740.503 2802.407 752.906 2787.919 760.146 2767.248 761.179 2746.577 762.213 2745.534 759.112 2725.896 766.347 2706.259 773.582 2693.838 764.28 2697.977 780.822 2702.115 797.363 2707.283 803.569 2707.283 806.669 2707.283 809.77 2697.977 830.45 2686.607 818.043 2675.238 805.636 2654.549 757.041 2663.855 790.128 2673.157 823.211 2693.833 834.589 2674.196 839.757 2654.558 844.925 2656.611 837.69 2653.511 835.618 2650.415 833.551 2653.511 819.077 2652.477 810.804 2651.443 802.531 2649.376 797.363 2645.242 793.229 2641.108 789.094 2642.137 782.888 2633.868 780.822 2625.6 778.754 2632.835 774.615 2619.394 774.615 2605.953 774.615 2594.584 766.342 2597.685 784.956 2600.785 803.569 2603.882 791.162 2612.15 808.737 2620.418 826.312 2635.931 813.905 2624.562 826.312 2613.188 838.719 2583.206 834.585 2575.966 829.417 2568.727 824.249 2570.798 831.484 2557.348 822.177 2543.898 812.871 2548.051 805.631 2532.543 812.871 2517.035 820.11 2511.863 833.551 2505.657 828.379 2499.451 823.207 2484.981 835.614 2479.809 829.417 2474.636 823.22 2453.956 823.211 2449.826 829.417 2445.697 835.623 2433.28 834.585 2415.705 842.858 2398.13 851.131 2403.293 843.887 2381.584 861.467 2359.875 879.046 2347.458 893.516 2340.228 882.142 2332.988 870.773 2293.695 851.126 2309.207 848.021 2324.72 844.916 2331.955 838.719 2340.228 845.954 2348.501 853.189 2361.946 851.126 2364.004 845.954 2366.062 840.781 2375.383 835.614 2362.971 829.412 2350.559 823.211 2349.53 827.341 2329.888 820.106 2310.241 812.866 2329.888 814.938 2303.001 810.799 2276.115 806.66 2264.741 804.598 2257.506 802.531 2250.271 800.464 2239.931 802.531 2229.596 801.497 2219.26 800.464 2212.021 798.396 2202.709 799.43 2193.407 800.464 2188.24 798.396 2175.828 807.703 2163.416 817.01 2154.109 821.144 2145.841 828.379 2137.572 835.614 2115.863 850.093 2109.657 855.265 2103.451 860.438 2081.737 876.974 2079.67 883.18 2077.603 889.386 2081.737 894.554 2073.464 898.688 2065.191 902.823 2056.923 902.823 2050.717 903.856 2044.511 904.89 2050.717 894.55 2044.511 904.89 2038.305 915.23 2040.376 952.452 2045.544 947.279 2050.712 942.107 2047.611 925.57 2070.359 941.083 2093.106 956.595 2107.585 954.519 2106.547 968.993 2105.509 983.468 2122.055 982.434 2124.122 985.539 2126.189 988.635 2136.53 981.4 2136.53 981.4 2136.53 981.4 2159.277 966.926 2159.277 959.691 2159.277 952.456 2173.751 935.91 2173.751 935.91 2173.751 935.91 2163.407 930.742 2163.407 920.402 2163.407 910.062 2166.517 906.957 2168.579 896.617 2170.641 886.277 2157.205 896.621 2188.226 876.97 2219.246 857.318 2221.309 870.773 2221.309 870.773 2221.309 870.773 2225.438 874.907 2220.271 881.109 2215.103 887.31 2205.796 903.861 2203.729 905.923 2201.662 907.986 2213.036 924.536 2218.199 924.536 2223.371 924.536 2233.711 920.398 2239.917 921.431 2246.123 922.469 2256.459 918.335 2259.56 920.402 2262.665 922.469 2269.9 928.671 2264.728 933.843 2259.555 939.015 2248.181 945.212 2239.917 943.15 2231.654 941.087 2219.232 926.604 2226.472 947.284 2233.711 967.964 2225.438 973.132 2219.232 972.099 2213.036 971.065 2199.59 960.729 2201.657 976.237 2203.725 991.745 2188.221 1002.081 2185.116 1002.081 2182.01 1002.081 2175.814 1001.047 2175.814 1001.047 2175.814 1001.047 2166.503 1000.009 2161.339 1000.009 2156.167 1000.009 2145.827 1005.177 2142.726 1009.316 2139.621 1013.45 2135.487 1010.354 2130.319 1010.354 2125.151 1010.354 2130.319 1004.148 2119.979 1002.081 2109.639 1000.014 2103.437 997.947 2097.236 1002.081 2091.035 1006.215 2081.728 1008.282 2077.589 1005.182 2073.45 1002.081 2079.661 994.837 2071.383 998.98 2063.106 1003.124 2056.909 1014.488 2053.808 1015.526 2050.708 1016.555 2063.115 1015.526 2050.708 1016.555 2038.3 1017.594 2033.132 1020.699 2026.926 1022.761 2020.72 1024.824 2028.994 1037.236 2017.62 1041.37 2006.246 1045.504 2014.524 1036.202 2003.145 1045.504 1991.772 1054.815 1989.7 1063.084 1985.57 1064.117 1981.431 1065.156 1982.47 1067.218 1973.163 1068.252 1963.856 1069.285 1964.895 1070.319 1959.718 1071.352 1954.541 1072.386 1960.756 1074.458 1949.382 1072.386 1938.008 1070.314 1929.735 1074.458 1931.802 1078.592 1933.87 1082.726 1972.125 1094.1 1943.176 1093.066 1914.227 1092.033 1923.534 1097.2 1929.735 1101.335 1935.937 1105.469 1939.037 1109.603 1942.143 1110.641 1945.248 1111.679 1950.411 1124.087 1950.411 1124.087 1950.411 1124.087 1958.684 1123.049 1953.516 1130.288 1948.348 1137.527 1955.583 1139.595 1950.411 1148.901 1945.239 1158.208 1945.243 1152.002 1941.109 1154.069 1936.975 1156.136 1930.769 1163.376 1919.391 1157.17 1908.012 1150.964 1899.753 1147.863 1886.307 1146.834 1872.867 1145.796 1882.169 1143.734 1872.867 1150.964 1863.56 1158.208 1861.493 1166.476 1862.531 1175.778 1863.564 1185.08 1864.598 1197.492 1861.493 1203.698 1858.388 1209.904 1858.392 1216.106 1860.455 1225.412 1862.526 1234.714 1868.732 1238.858 1868.732 1238.858 1868.732 1238.858 1883.207 1240.92 1886.307 1241.958 1889.408 1242.996 1895.614 1239.891 1903.882 1245.054 1912.156 1250.227 1920.428 1252.298 1925.596 1246.093 1930.764 1239.887 1951.444 1232.652 1957.655 1226.45 1963.866 1220.249 1967.991 1218.182 1964.89 1211.976 1961.789 1205.77 1971.096 1190.262 1976.264 1187.161 1981.431 1184.061 1992.805 1180.955 1992.805 1180.955 L2005.212 1162.347 C2005.212 1162.347 2015.553 1150.968 2020.72 1152.007 2025.888 1153.045 2054.837 1163.385 2052.774 1149.944 2050.712 1136.503 2054.842 1132.364 2057.942 1137.532 2061.043 1142.7 2069.316 1140.633 2069.316 1140.633 2069.316 1140.633 2073.45 1138.57 2076.551 1141.671 2079.652 1144.767 2083.786 1158.217 2089.992 1161.313 2096.198 1164.418 2101.365 1167.519 2105.504 1169.582 2109.643 1171.644 2113.777 1169.582 2122.051 1176.821 2130.323 1184.061 2138.592 1188.199 2139.621 1191.296 2140.664 1194.396 2147.899 1201.636 2147.899 1201.636 2147.899 1201.636 2155.134 1203.703 2153.066 1207.842 2150.999 1211.98 2140.664 1224.388 2135.491 1226.45 2130.319 1228.513 2116.883 1224.379 2122.051 1228.517 2127.214 1232.652 2134.458 1237.824 2137.558 1234.719 2140.664 1231.618 2160.301 1210.938 2160.301 1210.938 2160.301 1210.938 2159.268 1211.971 2160.301 1205.765 2161.335 1199.559 2160.301 1192.329 2165.474 1195.43 2170.641 1198.535 2173.747 1202.669 2175.814 1198.535 2177.881 1194.401 2179.948 1196.468 2174.776 1193.367 2169.603 1190.267 2157.201 1172.687 2150.995 1171.653 2144.789 1170.62 2129.276 1160.275 2129.276 1160.275 2129.276 1160.275 2126.18 1157.174 2118.941 1148.906 2111.701 1140.637 2109.639 1142.7 2107.562 1135.46 2105.486 1128.221 2099.289 1118.919 2110.667 1120.986 2122.046 1123.053 2129.276 1130.288 2139.616 1136.494 2149.957 1142.7 2147.894 1144.762 2157.196 1150.968 2166.498 1157.174 2167.541 1163.38 2174.771 1162.347 2182.006 1161.313 2190.284 1166.481 2190.284 1175.788 2190.284 1185.094 2192.346 1195.43 2194.413 1197.501 2196.48 1199.573 2202.682 1203.707 2204.754 1207.842 2206.825 1211.976 2210.959 1222.316 2214.056 1226.45 2217.161 1230.584 2220.261 1233.69 2223.362 1238.862 2226.463 1244.03 2227.496 1237.824 2230.597 1239.896 2233.702 1241.963 2237.837 1240.925 2237.837 1236.791 2237.837 1232.656 2238.865 1225.417 2238.865 1225.417 2238.865 1225.417 2253.349 1221.282 2249.215 1219.211 2245.081 1217.139 2232.664 1204.736 2233.702 1200.602 2234.74 1196.468 2233.702 1188.199 2238.865 1189.233 2244.038 1190.262 2249.21 1199.569 2260.584 1191.296 2271.958 1183.022 2285.399 1178.888 2281.26 1191.296 2277.121 1203.703 2282.302 1205.765 2281.26 1219.211 2280.231 1232.656 2285.403 1228.517 2292.643 1235.757 2299.882 1242.996 2305.045 1244.035 2310.213 1246.097 2315.381 1248.16 2323.654 1247.135 2331.932 1248.169 2340.209 1249.202 2345.373 1245.063 2352.612 1247.135 2359.842 1249.202 2376.388 1246.097 2379.494 1248.169 2382.599 1250.24 2395.006 1244.035 2396.035 1251.269 2397.069 1258.509 2401.208 1250.236 2398.107 1266.777 2395.006 1283.319 2390.867 1294.693 2390.867 1294.693 2379.494 1316.407 2375.359 1321.579 2370.187 1322.613 2365.024 1323.646 2361.919 1326.747 2352.617 1325.713 2343.31 1324.675 2331.936 1325.713 2318.495 1322.613 2305.055 1319.512 2280.235 1325.713 2269.9 1319.507 2259.564 1313.301 2245.085 1318.474 2238.875 1311.239 2232.664 1304.004 2222.338 1305.033 2218.199 1300.899 2214.06 1296.764 2211.998 1285.395 2211.998 1301.937 2211.998 1318.478 2202.691 1319.512 2200.624 1327.785 2198.557 1336.058 2203.72 1331.919 2192.346 1330.886 2180.973 1329.847 2177.872 1336.053 2161.33 1323.651 2144.789 1311.248 2136.516 1311.243 2128.247 1306.071 2119.979 1300.899 2111.701 1315.373 2103.433 1298.836 2095.164 1282.299 2083.786 1295.731 2082.752 1282.29 2081.719 1268.845 2082.752 1269.887 2083.786 1261.614 2084.819 1253.341 2096.193 1246.106 2091.025 1243.006 2085.857 1239.905 2089.987 1234.733 2082.752 1237.838 2075.518 1240.943 2065.177 1241.972 2056.904 1245.073 2048.631 1248.178 2075.513 1245.073 2035.19 1248.178 1994.868 1251.283 1983.49 1255.413 1983.49 1255.413 1983.49 1255.413 1980.389 1253.346 1975.216 1257.48 1970.044 1261.614 1962.809 1267.82 1955.574 1264.72 1948.339 1261.614 1944.2 1262.648 1937.999 1263.686 1931.798 1264.724 1927.663 1258.518 1920.424 1263.686 1913.184 1268.849 1904.916 1270.921 1901.811 1268.849 1898.701 1266.755 1893.529 1258.486 1893.529 1258.486 Z" fill="#b2b2b2" fill-opacity="1" stroke="none"/>
  <path id="Path-2" d="M2585.231 1938.811 C2582.131 1950.189 2570.757 1966.726 2570.757 1966.726 L2550.072 1977.066 C2550.072 1977.066 2542.846 1983.272 2538.703 1984.306 2534.569 1985.334 2524.229 1990.511 2524.229 1990.511 2524.229 1990.511 2514.927 1988.44 2518.022 1997.742 2521.123 2007.048 2522.161 2018.427 2521.123 2021.523 2520.094 2024.628 2520.094 2030.834 2520.094 2039.107 2520.094 2047.38 2516.994 2057.711 2511.821 2059.778 2506.649 2061.845 2501.481 2063.917 2502.515 2071.157 2503.548 2078.396 2503.553 2100.105 2503.553 2100.105 L2516.998 2120.786 C2516.998 2120.786 2521.132 2117.685 2529.406 2117.685 2537.679 2117.685 2545.947 2110.455 2545.947 2110.455 2545.947 2110.455 2555.258 2112.513 2554.215 2101.148 2553.182 2089.77 2558.359 2076.333 2557.316 2073.228 2556.287 2070.128 2566.627 2056.682 2566.627 2053.586 2566.627 2050.481 2576.968 2036.016 2576.968 2030.839 2576.968 2025.662 2584.202 2017.398 2585.236 2011.201 2586.27 2005.004 2587.303 1990.521 2589.37 1986.386 2591.438 1982.252 2592.476 1978.113 2592.476 1973.979 2592.476 1969.845 2592.476 1961.572 2592.476 1961.572 Z" fill="#b2b2b2" fill-opacity="1" stroke="none"/>
  <path id="Path-3" d="M3394.802 2078.396 C3391.701 2082.526 3389.634 2126.992 3387.566 2132.159 3385.499 2137.327 3381.361 2164.214 3383.437 2170.41 3385.513 2176.607 3388.6 2199.364 3386.538 2206.603 3384.475 2213.843 3387.571 2236.586 3382.394 2235.552 3377.231 2234.514 3375.168 2236.59 3375.168 2239.686 3375.168 2242.792 3382.394 2248.988 3382.394 2248.988 3382.394 2248.988 3394.811 2248.993 3399.979 2247.955 3405.146 2246.917 3415.486 2241.749 3423.76 2241.749 3432.032 2241.749 3437.205 2235.543 3444.435 2235.543 3451.675 2235.543 3467.187 2230.38 3471.322 2232.442 3475.456 2234.505 3481.657 2220.035 3488.897 2223.14 3496.136 2226.245 3511.649 2215.901 3518.884 2215.901 3526.118 2215.901 3529.224 2204.522 3537.497 2206.599 3545.77 2208.675 3561.278 2202.464 3568.517 2205.556 3575.743 2208.666 3587.126 2195.22 3592.294 2205.556 3597.461 2215.892 3612.979 2220.035 3612.979 2225.203 3612.979 2230.371 3611.931 2241.749 3611.931 2241.749 L3624.343 2240.71 C3624.343 2240.71 3643.981 2228.303 3647.091 2228.303 3650.2 2228.303 3657.431 2217.968 3657.431 2223.14 3657.431 2228.303 3651.22 2239.686 3649.158 2244.849 3647.091 2250.022 3651.22 2256.228 3651.22 2256.228 3651.22 2256.228 3661.57 2261.396 3657.431 2270.698 3653.292 2280.004 3658.46 2277.942 3657.431 2285.172 3656.393 2292.411 3657.431 2289.306 3661.556 2293.44 3665.681 2297.575 3672.943 2304.828 3679.14 2303.785 3685.337 2302.742 3687.408 2296.55 3692.581 2299.651 3697.749 2302.752 3708.084 2300.685 3711.185 2304.823 3714.299 2308.953 3691.547 2319.293 3730.836 2301.723 3770.125 2284.152 3774.25 2280.004 3779.423 2273.798 3784.595 2267.592 3790.81 2261.396 3794.935 2257.257 3799.061 2253.118 3795.978 2254.156 3808.376 2244.849 3820.784 2235.547 3820.784 2239.682 3832.166 2222.102 3843.549 2204.522 3851.804 2198.326 3853.88 2195.22 3855.957 2192.115 3860.082 2191.086 3861.115 2178.67 3862.149 2166.267 3870.417 2154.893 3870.417 2150.759 3870.417 2146.625 3873.518 2140.428 3872.484 2133.184 3871.451 2125.94 3876.623 2115.613 3870.417 2105.273 3864.211 2094.933 3873.518 2090.803 3864.211 2086.655 3854.905 2082.507 3848.703 2084.593 3846.636 2077.354 3844.569 2070.114 3836.292 2071.147 3833.191 2051.505 3830.09 2031.863 3817.683 2029.787 3817.683 2029.787 3817.683 2029.787 3805.275 2024.619 3808.376 2022.556 3811.477 2020.494 3812.515 2006.006 3811.486 2001.871 3810.448 1997.737 3810.448 1988.431 3807.352 1982.234 3804.251 1976.023 3802.18 1967.759 3799.079 1960.515 3795.978 1953.271 3790.81 1951.209 3788.739 1942.94 3786.667 1934.672 3783.566 1931.562 3782.537 1929.499 3781.495 1927.432 3779.423 1917.097 3777.365 1928.461 3775.298 1939.835 3771.154 1961.544 3771.154 1961.544 3771.154 1961.544 3762.881 1979.129 3759.781 1984.296 3756.68 1989.46 3753.579 2002.905 3748.412 2001.867 3743.244 2000.829 3740.129 2007.044 3736.004 2006.001 3731.879 2004.958 3725.664 2007.039 3722.563 2003.938 3719.463 2000.838 3711.189 1992.565 3707.051 1991.527 3702.917 1990.498 3699.816 1982.229 3696.711 1982.229 3693.605 1982.229 3688.438 1974.985 3689.476 1970.851 3690.505 1966.717 3691.538 1957.415 3692.576 1953.276 3693.605 1949.142 3699.816 1939.83 3699.816 1939.83 3699.816 1939.83 3699.816 1933.629 3694.644 1933.629 3689.471 1933.629 3688.438 1933.629 3677.064 1932.591 3665.69 1931.553 3662.599 1930.524 3658.451 1930.524 3654.303 1930.524 3662.594 1928.457 3651.216 1931.557 3639.837 1934.658 3634.674 1942.936 3627.435 1950.175 3620.209 1957.41 3626.406 1955.338 3620.209 1957.41 3614.012 1959.482 3615.036 1952.238 3610.898 1963.616 3606.759 1974.994 3612.969 1978.086 3609.855 1980.158 3606.74 1982.229 3585.05 1972.923 3585.05 1972.923 3585.05 1972.923 3590.218 1971.884 3586.079 1966.717 3581.94 1961.549 3577.81 1954.314 3571.614 1957.415 3565.417 1960.515 3560.226 1962.587 3556.101 1967.755 3551.976 1972.923 3551.962 1977.057 3548.861 1981.191 3545.76 1985.325 3537.492 1985.325 3536.454 1989.464 3535.416 1993.603 3535.42 2003.938 3532.324 2004.972 3529.224 2006.01 3528.19 2000.847 3525.089 1999.809 3521.989 1998.775 3523.018 1990.502 3520.955 1995.675 3518.893 2000.847 3516.821 1999.804 3513.72 2008.077 3510.61 2016.35 3509.582 2023.59 3506.481 2024.624 3503.38 2025.657 3506.481 2026.691 3497.169 2031.863 3487.872 2037.031 3485.801 2037.031 3472.364 2043.237 3458.928 2049.443 3462.029 2049.443 3452.722 2050.472 3443.42 2051.51 3441.344 2054.61 3435.142 2055.644 3428.932 2056.678 3424.807 2057.707 3418.596 2063.912 3412.386 2070.118 3407.227 2072.181 3403.093 2073.219 3398.959 2074.257 3394.802 2078.396 3394.802 2078.396 Z" fill="#b2b2b2" fill-opacity="1" stroke="none"/>
  <path id="Path-4" d="M3455.8 1669.989 C3451.67 1676.2 3438.229 1694.804 3433.061 1695.842 3427.889 1696.871 3422.717 1702.048 3418.583 1701.01 3414.448 1699.971 3405.142 1701.01 3402.041 1714.45 3398.94 1727.891 3393.768 1735.131 3390.658 1734.093 3387.548 1733.054 3395.826 1753.735 3378.255 1745.471 3360.685 1737.207 3366.886 1752.71 3364.814 1756.849 3362.743 1760.988 3367.915 1772.357 3368.949 1776.491 3369.991 1780.626 3373.083 1787.865 3377.222 1794.062 3381.361 1800.259 3384.457 1807.503 3391.696 1805.445 3398.936 1803.387 3421.674 1805.445 3421.674 1805.445 3421.674 1805.445 3429.956 1808.546 3435.119 1808.546 3440.287 1808.546 3441.325 1806.478 3444.421 1806.478 3447.518 1806.478 3453.723 1796.134 3452.694 1795.105 3451.661 1794.062 3448.565 1790.966 3454.761 1784.76 3460.958 1778.554 3468.202 1776.491 3469.241 1769.252 3470.279 1762.012 3467.174 1762.017 3470.274 1757.874 3473.375 1753.73 3480.61 1754.782 3478.547 1750.639 3476.485 1746.495 3480.61 1747.538 3476.475 1739.26 3472.341 1730.983 3467.169 1727.887 3471.303 1717.546 3475.438 1707.206 3479.585 1705.139 3478.547 1698.938 3477.509 1692.736 3483.715 1690.665 3476.475 1683.425 3469.245 1676.195 3466.14 1674.123 3460.968 1672.047 Z" fill="#b2b2b2" fill-opacity="1" stroke="none"/>
  <path id="Path-5" d="M3658.451 1773.386 C3662.594 1772.353 3677.064 1762.012 3678.102 1780.626 3679.14 1799.239 3680.16 1794.062 3686.375 1804.402 3692.59 1814.742 3696.702 1817.852 3703.941 1812.68 3711.181 1807.507 3719.449 1807.503 3721.516 1798.205 3723.588 1788.899 3723.588 1788.899 3729.789 1788.899 3735.99 1788.899 3738.062 1787.865 3741.177 1792.009 3744.273 1796.134 3746.331 1791.999 3759.781 1799.239 3773.231 1806.478 3784.591 1804.402 3792.873 1811.646 3801.155 1818.89 3805.28 1817.857 3816.649 1821.986 3828.019 1826.116 3822.851 1819.919 3833.191 1831.293 3843.531 1842.667 3839.406 1845.763 3844.565 1850.935 3849.732 1856.103 3853.876 1846.796 3851.804 1859.204 3849.732 1871.611 3835.263 1859.204 3856.977 1876.774 3878.69 1894.345 3881.791 1897.464 3889.021 1902.627 3896.266 1907.799 3901.433 1914.005 3895.237 1914.005 3889.04 1914.005 3869.384 1914.005 3867.321 1910.9 3865.259 1907.795 3855.948 1905.728 3849.737 1898.493 3843.541 1891.262 3830.099 1886.085 3827.003 1879.884 3823.894 1873.673 3819.759 1871.611 3814.592 1871.611 3809.424 1871.611 3804.256 1877.812 3797.012 1885.052 3789.768 1892.291 3792.887 1880.922 3783.571 1884.018 3774.26 1887.123 3763.933 1882.98 3758.756 1878.846 3753.579 1874.712 3754.627 1868.51 3746.358 1871.611 3738.09 1874.712 3732.917 1872.644 3736.018 1866.443 3739.119 1860.242 3737.047 1851.964 3737.047 1851.964 3737.047 1851.964 3740.157 1841.624 3732.922 1839.561 3725.687 1837.499 3725.682 1830.259 3718.443 1828.183 3711.204 1826.107 3699.834 1820.948 3699.834 1820.948 3699.834 1820.948 3698.801 1820.948 3695.695 1819.915 3692.59 1818.881 3692.595 1818.876 3684.322 1816.814 3676.049 1814.751 3669.843 1816.805 3665.713 1811.642 3661.57 1806.474 3663.642 1799.234 3663.642 1799.234 3663.642 1799.234 3680.183 1801.301 3663.642 1788.894 L3647.1 1776.491 C3647.1 1776.491 3649.158 1775.453 3648.129 1773.386 3647.086 1771.31 3658.451 1773.386 3658.451 1773.386 Z" fill="#b2b2b2" fill-opacity="1" stroke="none"/>
  <path id="Path-6" d="M3193.17 1687.546 C3193.17 1687.546 3198.338 1692.723 3206.611 1691.685 3214.884 1690.646 3221.077 1708.226 3226.258 1714.427 3231.421 1720.633 3234.531 1723.734 3245.9 1730.974 3257.269 1738.208 3256.236 1724.768 3271.749 1746.482 3287.261 1768.195 3280.017 1754.755 3287.256 1768.191 3294.491 1781.646 3298.63 1788.876 3302.764 1791.986 3306.898 1795.095 3310.004 1803.35 3311.042 1806.455 3312.071 1809.556 3319.306 1818.858 3319.306 1821.963 3319.306 1825.069 3321.377 1833.337 3315.176 1840.572 3308.975 1847.807 3303.798 1848.845 3303.798 1848.845 3303.798 1848.845 3291.391 1842.639 3287.256 1836.438 3283.122 1830.236 3277.954 1825.064 3270.71 1812.661 3263.466 1800.259 3255.202 1786.809 3251.068 1780.607 3246.934 1774.406 3240.728 1768.191 3237.627 1761.994 3234.526 1755.797 3226.254 1737.179 3222.119 1735.108 3217.985 1733.036 3216.947 1726.839 3209.707 1719.6 3202.477 1712.36 3203.506 1706.159 3200.405 1702.025 3197.305 1697.891 3190.07 1688.575 3190.07 1688.575 Z" fill="#b2b2b2" fill-opacity="1" stroke="none"/>
  <path id="Path-7" d="M1182.179 2494.042 C1174.939 2489.908 1159.431 2482.669 1154.263 2478.535 1149.096 2474.4 1133.588 2451.644 1133.588 2451.644 L1122.209 2429.93 C1122.209 2429.93 1108.773 2413.388 1111.874 2407.187 1114.974 2400.981 1121.18 2396.847 1121.18 2393.746 1121.18 2390.646 1127.382 2382.368 1122.209 2379.272 1117.042 2376.167 1117.042 2375.137 1113.936 2365.831 1110.836 2356.529 1110.836 2348.247 1106.701 2346.184 1102.567 2344.122 1099.462 2330.676 1095.328 2329.643 1091.193 2328.609 1087.055 2321.37 1087.055 2321.37 L1080.849 2237.619 C1080.849 2237.619 1078.777 2199.368 1076.714 2191.091 1074.652 2182.813 1079.815 2165.247 1074.643 2149.734 1069.47 2134.222 1075.681 2115.618 1072.576 2109.412 1069.47 2103.206 1074.643 2085.636 1071.542 2069.094 1068.441 2052.552 1083.949 2031.872 1071.542 2025.671 1059.135 2019.469 1068.441 2010.158 1058.101 2010.158 1047.761 2010.158 1040.526 2004.986 1031.219 1997.756 1021.913 1990.516 1004.333 1977.071 999.165 1971.898 993.998 1966.735 977.451 1953.29 972.284 1949.155 967.116 1945.021 961.944 1927.441 957.809 1922.269 953.675 1917.106 951.608 1901.598 945.402 1892.291 939.196 1882.989 930.928 1867.481 928.856 1864.376 926.784 1861.271 904.041 1834.394 904.041 1834.394 L906.108 1817.852 C906.108 1817.852 921.616 1808.546 919.549 1805.445 917.482 1802.344 920.587 1799.234 913.343 1793.038 906.099 1786.841 907.137 1775.453 913.343 1770.29 919.549 1765.113 928.851 1748.572 928.851 1748.572 L944.359 1722.728 C944.359 1722.728 956.771 1709.278 956.771 1699.976 956.771 1690.674 974.346 1684.473 964.006 1676.2 953.666 1667.927 958.838 1660.687 955.733 1654.481 952.628 1648.275 954.699 1644.146 964.006 1637.94 973.313 1631.734 989.854 1608.991 989.854 1608.991 989.854 1608.991 1002.261 1605.885 1005.362 1605.885 1008.463 1605.885 1013.635 1572.793 1022.942 1594.507 1032.248 1616.221 1035.349 1604.847 1032.248 1620.355 1029.148 1635.863 1036.383 1632.767 1040.517 1628.633 1044.651 1624.499 1038.445 1631.734 1046.718 1613.116 1054.991 1594.498 1051.891 1588.306 1057.058 1593.478 1062.226 1598.651 1064.293 1599.684 1073.6 1602.785 1082.902 1605.885 1086.007 1604.847 1089.103 1611.053 1092.204 1617.259 1091.175 1608.986 1108.75 1612.091 1126.325 1615.197 1151.14 1605.885 1148.039 1616.221 1144.938 1626.561 1138.732 1615.188 1153.207 1626.561 1167.681 1637.935 1169.753 1640.002 1178.021 1642.074 1186.29 1644.146 1193.529 1643.107 1205.941 1655.515 1218.353 1667.922 1221.449 1668.955 1224.55 1675.152 1227.651 1681.349 1232.818 1677.224 1237.991 1683.425 1243.163 1689.627 1250.398 1689.636 1257.633 1689.636 1264.868 1689.636 1257.633 1683.425 1269.007 1691.703 1280.38 1699.981 1288.654 1701 1293.821 1717.547 1298.989 1734.093 1309.329 1733.059 1301.056 1749.605 1292.783 1766.151 1276.246 1773.386 1283.481 1772.353 1290.716 1771.314 1304.161 1765.109 1308.296 1766.147 1312.43 1767.176 1314.497 1763.046 1320.703 1766.147 1326.909 1769.247 1327.943 1762.012 1326.909 1769.247 1325.875 1776.482 1325.871 1769.247 1325.871 1776.487 1325.871 1783.726 1323.804 1769.247 1336.211 1772.353 1348.618 1775.458 1341.379 1766.142 1355.853 1779.588 1370.328 1793.033 1370.332 1788.899 1375.495 1796.134 1380.668 1803.364 1385.836 1792.004 1388.941 1795.1 1392.046 1798.196 1401.348 1796.129 1410.655 1798.201 1419.961 1800.272 1413.755 1791.999 1428.234 1801.302 1442.704 1810.604 1457.183 1807.503 1460.284 1815.776 1463.385 1824.049 1471.662 1820.944 1475.792 1826.116 1479.922 1831.288 1481.993 1824.044 1486.132 1831.288 1490.266 1838.519 1502.678 1836.452 1500.606 1843.687 1498.535 1850.931 1503.703 1846.792 1501.635 1857.127 1499.568 1867.463 1492.329 1884.018 1486.132 1888.148 1479.935 1892.277 1479.931 1897.455 1475.792 1902.622 1471.653 1907.79 1472.691 1897.455 1467.519 1911.929 1462.346 1926.403 1463.385 1928.475 1459.25 1941.911 1455.116 1955.348 1458.217 1941.911 1455.116 1955.352 1452.016 1968.793 1454.083 1977.066 1450.982 1992.578 1447.881 2008.091 1448.915 2008.087 1446.848 2019.46 1444.781 2030.834 1452.016 2014.297 1442.709 2038.069 1433.407 2061.854 1432.373 2060.812 1429.273 2071.157 1426.167 2081.501 1430.306 2073.224 1418.932 2079.43 1407.559 2085.636 1413.765 2083.564 1400.319 2087.703 1386.883 2091.837 1370.337 2095.98 1365.169 2097.009 1360.001 2098.038 1339.321 2104.244 1345.527 2116.647 1351.733 2129.05 1351.733 2131.126 1345.527 2146.639 1339.321 2162.151 1330.019 2167.319 1330.019 2174.549 1330.019 2181.784 1325.88 2189.019 1324.851 2194.191 1323.813 2199.364 1334.153 2189.019 1321.75 2204.531 1309.348 2220.044 1308.309 2215.905 1304.171 2225.212 1300.036 2234.514 1304.171 2227.274 1300.036 2234.514 1295.902 2241.753 1285.562 2244.849 1285.562 2244.849 1285.562 2244.849 1286.591 2250.022 1282.457 2247.955 1278.323 2245.888 1279.356 2248.988 1263.844 2244.849 1248.331 2240.71 1246.268 2230.384 1244.201 2237.615 1242.134 2244.849 1245.235 2248.993 1254.542 2256.228 1263.844 2263.467 1279.356 2265.53 1275.217 2272.774 1271.078 2280.018 1271.083 2280.013 1267.982 2284.148 1264.877 2288.287 1272.117 2285.181 1264.877 2288.287 1257.638 2291.392 1253.503 2304.833 1250.403 2304.833 1247.302 2304.833 1245.23 2310 1241.096 2307.933 1236.962 2305.866 1226.626 2298.626 1224.555 2302.761 1222.483 2306.895 1218.349 2297.588 1219.382 2312.063 1220.416 2326.537 1222.487 2334.81 1217.315 2337.916 1212.143 2341.021 1199.735 2337.916 1199.735 2337.916 L1197.668 2332.743 1190.433 2334.81 C1190.433 2334.81 1187.333 2347.218 1192.5 2349.285 1197.668 2351.352 1196.635 2353.414 1201.802 2359.62 1206.97 2365.826 1203.874 2377.2 1203.874 2377.2 1203.874 2377.2 1203.874 2380.305 1198.706 2385.473 1193.539 2390.641 1191.467 2394.78 1190.433 2397.88 1189.395 2400.981 1183.194 2414.427 1192.5 2413.388 1201.802 2412.35 1209.047 2407.182 1209.047 2423.729 1209.047 2440.274 1213.181 2436.14 1208.013 2447.51 1202.841 2458.883 1198.706 2459.917 1197.673 2470.252 1196.644 2480.593 1198.711 2481.626 1200.778 2487.832 1202.845 2494.038 1208.018 2490.933 1202.845 2494.038 1197.687 2497.139 1182.179 2494.042 1182.179 2494.042 Z" fill="#b2b2b2" fill-opacity="1" stroke="none"/>
  <path id="Path-8" d="M915.42 1652.414 L908.185 1642.078 C908.185 1642.078 905.084 1635.868 899.912 1634.839 894.739 1633.81 883.366 1620.365 883.366 1620.365 883.366 1620.365 878.198 1616.23 878.198 1608.995 878.198 1601.76 874.059 1590.387 877.16 1577.979 880.26 1565.572 881.298 1550.064 880.265 1545.925 879.227 1541.791 885.433 1540.758 878.198 1536.619 870.963 1532.48 856.484 1531.451 847.177 1531.451 837.875 1531.451 826.497 1534.556 824.43 1535.585 822.363 1536.619 835.804 1504.569 837.871 1499.401 839.938 1494.234 849.244 1471.482 849.244 1468.385 849.244 1465.28 852.345 1464.247 846.144 1460.117 839.942 1455.987 829.602 1453.911 823.396 1457.012 817.195 1460.117 818.229 1452.878 813.061 1465.28 807.893 1477.683 802.721 1491.133 796.515 1493.2 790.309 1495.267 777.906 1501.473 777.906 1501.473 777.906 1501.473 762.398 1500.44 757.226 1499.406 752.053 1498.373 730.344 1486.999 726.21 1479.764 722.075 1472.524 720.008 1457.012 720.008 1449.781 720.008 1442.542 731.377 1420.833 730.344 1415.66 729.31 1410.488 741.722 1389.812 740.684 1386.707 739.646 1383.602 742.751 1373.266 745.852 1369.132 748.953 1364.998 764.465 1359.825 768.599 1355.691 772.734 1351.557 779.973 1346.389 787.208 1344.317 794.443 1342.245 800.653 1340.183 805.821 1340.183 810.989 1340.183 824.43 1328.809 826.497 1340.183 828.564 1351.557 837.875 1347.418 843.043 1348.451 848.211 1349.485 849.249 1354.657 857.517 1341.217 865.786 1327.776 874.059 1323.637 874.059 1326.738 874.059 1329.843 887.5 1325.709 889.567 1328.809 891.634 1331.91 895.773 1326.738 903.008 1332.943 910.243 1339.149 920.583 1340.183 919.549 1343.279 918.516 1346.38 923.684 1346.38 923.684 1349.485 923.684 1352.59 927.822 1342.245 927.822 1360.854 927.822 1379.463 932.99 1390.841 932.99 1390.841 932.99 1390.841 940.225 1406.354 943.326 1403.248 946.426 1400.143 952.628 1391.879 952.628 1391.879 952.628 1391.879 962.968 1385.673 955.733 1363.959 948.494 1342.25 953.666 1336.044 951.599 1328.805 949.532 1321.565 949.527 1317.426 961.934 1308.124 974.342 1298.822 1004.324 1278.142 1011.564 1274.008 1018.803 1269.874 1035.34 1258.5 1035.34 1258.5 1035.34 1258.5 1041.541 1255.399 1042.579 1247.126 1043.618 1238.853 1063.255 1224.378 1064.293 1220.244 1065.332 1216.11 1078.772 1205.775 1078.772 1205.775 1078.772 1205.775 1093.242 1197.497 1092.209 1192.334 1091.175 1187.166 1110.822 1177.864 1113.922 1177.864 1117.023 1177.864 1133.569 1183.027 1133.569 1173.72 1133.569 1164.418 1133.569 1162.347 1143.91 1154.078 1154.25 1145.81 1167.686 1133.398 1172.858 1133.398 1178.031 1133.398 1195.606 1124.1 1202.841 1122.029 1210.076 1119.957 1232.828 1109.617 1212.147 1122.029 1191.467 1134.441 1204.908 1127.197 1200.774 1137.537 1196.639 1147.877 1193.534 1161.318 1213.181 1145.805 1232.828 1130.293 1231.789 1127.192 1239.029 1126.163 1246.269 1125.129 1241.096 1129.264 1256.604 1124.091 1272.112 1118.919 1273.15 1116.856 1273.15 1116.856 1273.15 1116.856 1280.39 1110.65 1276.251 1107.554 1272.117 1104.449 1280.39 1100.315 1264.877 1106.516 1249.365 1112.718 1250.403 1113.756 1240.063 1110.65 1229.722 1107.545 1214.214 1108.579 1225.588 1098.239 1236.962 1087.898 1251.436 1084.798 1242.13 1080.664 1232.828 1076.529 1209.047 1081.702 1205.946 1082.73 1202.841 1083.764 1195.606 1081.697 1189.4 1082.73 1183.194 1083.764 1185.266 1074.467 1189.4 1072.395 1193.534 1070.323 1206.98 1064.117 1223.521 1059.983 1240.063 1055.849 1280.39 1054.815 1289.692 1054.815 1298.994 1054.815 1311.401 1056.887 1318.641 1051.715 1325.88 1046.542 1340.354 1038.278 1342.422 1034.135 1344.489 1029.991 1352.762 1023.799 1352.762 1023.799 1352.762 1023.799 1362.064 1014.493 1356.896 1010.358 1351.728 1006.224 1346.556 996.918 1342.422 998.985 1338.287 1001.052 1341.393 1013.464 1333.12 1000.018 1324.847 986.582 1325.88 984.51 1321.746 981.41 1317.612 978.309 1313.473 980.372 1316.578 965.902 1319.683 951.432 1318.645 945.221 1318.645 945.221 1318.645 945.221 1321.746 932.819 1318.645 931.785 1315.54 930.747 1313.477 927.651 1308.31 930.747 1303.137 933.848 1274.188 948.327 1267.987 951.427 1261.781 954.528 1253.508 939.02 1256.609 931.785 1259.714 924.541 1257.642 928.68 1253.508 918.344 1249.374 908.009 1232.832 905.932 1226.626 905.932 1220.42 905.932 1205.951 896.626 1201.812 902.832 1197.673 909.038 1175.968 928.675 1171.825 930.747 1167.681 932.819 1161.489 913.172 1158.389 945.221 1155.283 977.28 1169.762 986.582 1153.221 988.649 1136.679 990.716 1122.2 1000.018 1122.2 1000.018 1122.2 1000.018 1108.764 1001.057 1108.764 1009.325 1108.764 1017.594 1103.596 1037.24 1097.386 1039.307 1091.175 1041.375 1075.672 1038.278 1070.504 1032.073 1065.336 1025.866 1071.537 1003.124 1071.537 1003.124 L1080.844 993.817 C1080.844 993.817 1014.673 983.481 1015.702 979.343 1016.741 975.208 996.06 967.973 993.993 961.768 991.926 955.562 990.888 942.121 992.96 936.953 995.031 931.785 1022.942 906.97 1037.416 901.803 1051.891 896.635 1076.705 885.261 1083.945 883.189 1091.184 881.118 1103.587 882.156 1107.726 876.988 1111.865 871.82 1112.894 862.514 1112.894 862.514 1112.894 862.514 1110.826 848.035 1114.961 850.102 1119.095 852.169 1126.334 855.274 1127.368 858.375 1128.402 861.476 1128.406 868.715 1135.641 860.438 1142.876 852.16 1152.187 849.064 1160.456 844.934 1168.724 840.804 1181.131 841.833 1188.375 837.699 1195.62 833.565 1208.018 829.426 1209.051 819.086 1210.085 808.746 1205.951 811.851 1200.778 810.813 1195.61 809.784 1202.845 811.851 1185.27 820.12 1167.695 828.388 1172.863 822.187 1160.456 828.388 1148.048 834.589 1147.01 835.627 1145.981 830.46 1144.943 825.287 1148.048 817.019 1148.048 817.019 1148.048 817.019 1149.086 815.981 1141.847 813.918 1134.608 811.856 1134.608 814.952 1133.574 805.65 1132.54 796.343 1138.742 782.902 1128.406 787.037 1118.071 791.171 1108.764 783.936 1101.525 804.612 1094.285 825.287 1069.47 847.006 1063.264 841.833 1057.058 836.661 1056.03 835.627 1050.857 835.627 1045.685 835.627 1038.45 829.426 1029.143 828.393 1019.837 827.359 991.917 827.359 984.686 828.393 977.447 829.431 969.179 824.258 962.968 830.464 956.757 836.67 947.465 844.939 947.465 848.044 947.465 851.149 938.158 836.666 935.057 837.704 931.957 838.742 923.679 833.57 914.382 833.57 905.075 833.57 898.869 828.397 895.773 828.397 892.672 828.397 898.869 820.124 895.773 819.091 892.672 818.062 825.459 815.99 825.459 815.99 825.459 815.99 803.75 807.721 795.481 808.755 787.213 809.789 764.465 810.817 746.881 813.923 729.297 817.028 703.453 827.364 695.185 828.397 686.911 829.435 668.303 829.435 665.202 824.263 662.097 819.095 666.236 820.129 662.097 819.095 657.958 818.062 661.068 815.994 651.761 808.76 642.455 801.525 655.9 795.319 637.287 795.319 618.674 795.319 607.305 794.281 590.763 795.319 574.221 796.357 540.1 804.621 535.966 803.587 531.832 802.554 498.744 808.76 493.572 805.659 488.404 802.554 462.551 817.028 457.388 815.994 452.22 814.961 432.574 817.032 427.406 820.133 422.238 823.234 397.419 829.435 405.692 834.608 413.965 839.78 412.927 844.943 413.96 848.049 414.994 851.154 405.692 858.384 405.692 858.384 405.692 858.384 403.62 858.384 392.251 854.25 380.882 850.116 368.47 848.049 363.298 851.149 358.125 854.25 348.823 860.46 350.89 864.595 352.957 868.729 367.432 878.036 369.504 874.93 371.575 871.825 376.743 865.628 382.944 866.662 389.15 867.7 398.457 862.528 390.184 872.868 381.911 883.208 374.671 888.376 369.504 889.414 364.336 890.443 351.928 891.476 340.555 892.514 329.181 893.553 330.21 888.38 319.874 898.72 309.539 909.061 305.4 902.855 303.333 914.229 301.266 925.602 299.199 925.598 303.333 928.703 307.467 931.808 295.06 932.837 304.366 935.938 313.668 939.043 325.042 942.144 324.009 945.24 322.97 948.345 334.349 941.11 328.143 949.374 321.937 957.638 317.807 964.882 330.21 956.614 342.613 948.345 349.852 954.542 360.192 949.374 370.532 944.206 380.873 943.173 387.074 939.039 393.275 934.904 396.381 928.703 405.687 925.593 414.994 922.483 408.788 926.631 409.821 931.799 410.855 936.967 409.821 938 416.027 933.861 422.233 929.723 422.229 932.833 430.502 927.66 438.775 922.488 448.077 917.32 454.283 920.421 460.484 923.526 462.551 923.526 466.69 923.526 470.829 923.526 461.522 922.488 470.824 923.526 480.131 924.555 466.69 920.421 497.706 927.66 528.722 934.9 537 929.727 539.062 941.101 541.125 952.475 545.268 940.063 550.436 947.302 555.604 954.542 558.709 948.341 561.81 960.743 564.91 973.146 561.81 1007.271 559.742 1011.406 557.675 1015.54 556.642 1015.54 557.675 1024.847 558.709 1034.149 571.116 1078.615 566.982 1081.711 562.848 1084.807 553.541 1085.845 553.541 1085.845 L548.373 1104.454 C548.373 1104.454 540.105 1119.962 532.865 1128.235 525.626 1136.508 516.324 1146.848 511.151 1154.078 505.984 1161.318 501.845 1173.729 494.61 1180.964 487.375 1188.199 481.169 1185.099 483.236 1200.607 485.303 1216.115 483.236 1232.656 485.303 1244.035 487.37 1255.413 492.543 1270.916 496.677 1277.122 500.811 1283.328 503.917 1283.324 511.151 1288.491 518.391 1293.659 527.698 1299.87 526.659 1305.037 525.621 1310.205 527.693 1342.264 527.693 1342.264 527.693 1342.264 533.899 1352.599 534.928 1363.973 535.966 1375.352 543.201 1386.721 543.201 1386.721 L549.407 1400.166 C549.407 1400.166 552.508 1401.204 556.646 1409.468 560.785 1417.732 560.781 1417.741 561.814 1421.871 562.852 1426.014 562.852 1424.976 562.852 1426.014 562.852 1427.043 561.814 1408.435 559.747 1403.262 557.68 1398.09 557.68 1391.893 555.613 1385.687 553.546 1379.481 556.646 1372.242 550.445 1362.94 544.244 1353.638 544.244 1352.599 541.143 1343.293 538.042 1333.991 533.904 1323.651 538.042 1321.579 542.181 1319.507 545.277 1306.076 553.55 1321.579 561.823 1337.082 562.857 1332.957 563.891 1345.365 564.919 1357.772 568.025 1361.911 571.125 1367.074 574.226 1372.242 581.461 1389.826 585.6 1397.056 589.734 1404.296 585.6 1392.922 594.902 1407.396 604.208 1421.871 605.247 1424.971 610.414 1436.345 615.582 1447.719 618.687 1447.719 621.788 1455.987 624.889 1464.256 622.822 1462.193 620.75 1471.495 618.678 1480.797 622.817 1491.142 622.817 1491.142 622.817 1491.142 637.292 1496.31 638.325 1499.411 639.359 1502.511 653.833 1507.679 655.905 1511.818 657.976 1515.957 671.413 1521.12 671.413 1521.12 671.413 1521.12 682.786 1528.359 686.916 1530.427 691.046 1532.494 703.467 1534.565 703.467 1534.565 703.467 1534.565 711.735 1536.637 714.836 1537.666 717.937 1538.7 727.243 1538.7 727.243 1538.7 727.243 1538.7 735.516 1532.498 738.617 1534.565 741.718 1536.632 748.957 1530.427 752.058 1535.594 755.158 1540.762 761.364 1540.767 764.465 1544.906 767.566 1549.044 770.666 1549.04 775.839 1554.208 781.011 1559.375 786.179 1558.342 791.347 1562.476 796.515 1566.61 800.649 1566.61 806.855 1566.61 813.061 1566.61 813.056 1566.61 817.195 1567.648 821.334 1568.687 823.396 1564.543 827.531 1569.72 831.665 1574.897 834.765 1577.989 837.866 1583.156 840.967 1588.324 848.206 1588.324 849.24 1596.597 850.273 1604.87 852.34 1603.841 852.34 1611.072 852.34 1618.311 856.475 1621.412 859.58 1623.484 862.676 1625.546 874.05 1635.882 874.05 1635.882 L889.558 1638.987 901.965 1648.293 Z" fill="#b2b2b2" fill-opacity="1" stroke="none"/>
  <path id="Path-9" d="M1246.797 691.885 L1308.833 684.131 C1308.833 684.131 1330.542 684.131 1341.402 676.377 1352.261 668.623 1341.402 668.623 1373.97 662.422 1406.539 656.22 1397.237 653.115 1414.297 656.216 1431.354 659.321 1436.007 659.321 1454.62 662.422 1473.229 665.522 1477.882 660.874 1494.938 665.522 1511.994 670.171 1519.752 668.623 1533.712 668.623 L1577.136 668.623 C1598.85 668.623 1619.011 656.216 1626.765 663.969 1634.519 671.723 1639.172 668.623 1665.539 671.723 1691.907 674.824 1702.761 668.618 1713.616 671.723 1724.471 674.829 1743.088 670.176 1764.798 671.723 1786.507 673.271 1797.366 670.176 1805.12 670.176 1812.874 670.176 1820.624 659.316 1831.483 668.623 1842.342 677.929 1856.297 665.522 1857.845 677.929 1859.394 690.337 1879.559 681.03 1859.398 690.337 1839.237 699.643 1842.338 698.091 1828.378 710.498 1814.418 722.905 1837.684 733.76 1808.216 744.619 1778.748 755.479 1774.095 738.413 1766.341 757.027 1758.587 775.64 1766.341 780.289 1764.793 789.595 1763.24 798.897 1760.14 800.45 1750.833 808.204 1741.531 815.958 1741.531 808.204 1719.817 812.857 1698.103 817.51 1682.595 822.164 1673.293 822.164 1663.991 822.164 1643.825 829.918 1637.619 833.018 1631.414 836.119 1648.479 840.772 1615.906 850.079 1583.332 859.385 1575.578 857.838 1566.276 870.24 1556.974 882.643 1560.07 884.205 1553.869 891.959 1547.668 899.713 1529.055 930.733 1519.748 922.979 1510.446 915.225 1505.788 916.773 1498.034 909.019 1490.28 901.265 1485.627 890.411 1480.974 884.205 1476.32 877.999 1474.768 862.491 1473.219 853.184 1471.671 843.878 1457.707 822.168 1473.219 825.269 1488.727 828.37 1498.034 826.822 1502.687 823.721 1507.341 820.62 1511.994 809.761 1511.994 809.761 1511.994 809.761 1510.446 792.7 1505.788 783.394 1501.13 774.087 1504.24 766.333 1496.486 757.031 1488.732 747.725 1488.732 749.277 1477.873 739.97 1467.014 730.664 1470.119 726.01 1453.058 724.463 1435.998 722.915 1431.344 718.257 1425.138 719.809 1418.932 721.362 1398.776 708.95 1420.485 707.402 1442.194 705.854 1462.36 708.95 1462.36 708.95 1462.36 708.95 1490.275 696.543 1480.974 694.995 1471.671 693.442 1494.929 679.482 1473.219 684.135 1451.51 688.789 1426.696 694.995 1420.49 696.543 1414.284 698.091 1398.776 699.643 1383.268 704.297 1367.76 708.95 1349.147 707.402 1339.844 718.257 1330.538 729.111 1339.844 730.664 1330.538 729.111 1321.236 727.563 1338.292 718.257 1316.583 729.111 1294.873 739.966 1301.075 738.418 1290.22 735.317 1279.361 732.217 1271.607 727.563 1271.607 727.563 1271.607 727.563 1285.571 726.01 1265.405 724.463 1245.24 722.915 1245.244 722.915 1237.49 713.603 1229.736 704.292 1234.389 704.297 1239.038 701.196 1243.687 698.095 1246.797 691.885 1246.797 691.885 Z" fill="#b2b2b2" fill-opacity="1" stroke="none"/>
  <path id="Path-10" d="M1212.676 761.675 C1204.922 769.429 1186.308 780.289 1190.966 784.942 1195.624 789.595 1198.72 806.656 1208.027 802.002 1217.329 797.349 1206.474 781.841 1242.143 794.248 1277.817 806.656 1274.712 792.7 1282.466 811.309 1290.22 829.918 1296.421 843.873 1291.768 848.531 1287.115 853.189 1285.567 857.837 1270.054 862.491 1254.542 867.144 1248.34 873.35 1259.199 881.099 1270.059 888.849 1290.22 896.607 1299.522 901.265 1308.824 905.923 1336.744 907.471 1322.784 891.963 1308.824 876.455 1325.885 871.797 1325.885 871.797 1325.885 871.797 1352.252 891.963 1342.95 868.697 1333.648 845.43 1327.437 845.435 1333.643 845.435 1339.849 845.435 1352.252 853.189 1352.252 853.189 L1358.458 840.781 1352.252 820.62 1332.091 800.459 C1332.091 800.459 1349.147 784.951 1325.885 781.85 1302.623 778.75 1304.171 778.75 1291.763 770.991 1279.356 763.232 1277.808 760.136 1254.542 764.79 1231.275 769.443 1223.526 772.544 1223.526 772.544 Z" fill="#b2b2b2" fill-opacity="1" stroke="none"/>
  <path id="Path-11" d="M866.829 780.289 C876.135 770.982 900.95 749.273 910.256 755.474 919.559 761.675 933.514 750.821 944.373 760.127 955.232 769.434 967.635 780.289 976.942 783.389 986.248 786.49 997.103 775.635 1006.41 780.289 1015.712 784.942 1048.28 757.027 1042.079 778.74 1035.877 800.454 1049.833 806.656 1032.772 808.208 1015.712 809.761 997.103 822.168 989.344 817.515 981.586 812.862 975.384 808.208 962.977 814.414 950.57 820.62 956.776 820.616 942.816 817.515 928.856 814.414 925.76 820.616 922.659 815.962 919.554 811.313 910.252 812.862 911.8 798.902 913.348 784.942 918.001 786.494 908.695 786.494 899.393 786.494 891.639 788.047 885.433 783.394 879.227 778.74 866.829 780.289 866.829 780.289 Z" fill="#b2b2b2" fill-opacity="1" stroke="none"/>
 </g>
</svg>
