<?xml version='1.0' encoding='utf-8'?>
<svg xmlns="http://www.w3.org/2000/svg" width="91.44mm" height="91.44mm" version="1.1" style="shape-rendering:geometricPrecision; text-rendering:geometricPrecision; image-rendering:optimizeQuality; fill-rule:evenodd; clip-rule:evenodd" viewBox="0 0 9144 9144"> <defs> <style type="text/css">  .fil0 {fill:#F0F0F0} .fil1 {fill:#011627;fill-rule:nonzero}  </style> </defs> <g id="Layer_x0020_1"> <metadata id="CorelCorpID_0Corel-Layer"/> <g id="_2744492901664"> <polygon class="fil0" points="0,0 9144,0 9144,9144 0,9144 "/> <g> <path class="fil1" d="M6601 4572c0,-560 -227,-1067 -594,-1435 -368,-367 -875,-594 -1435,-594 -560,0 -1067,227 -1435,594 -367,368 -594,875 -594,1435 0,560 227,1067 594,1435 368,367 875,594 1435,594 560,0 1067,-227 1435,-594 367,-368 594,-875 594,-1435zm-2513 791l1231 -791 -1231 -792 0 1583zm1442 -717l-1478 949c-14,11 -32,17 -52,17 -49,0 -88,-39 -88,-88l0 -1905 0 0c0,-16 4,-33 14,-48 26,-40 81,-52 122,-26l1480 952 2 149zm26 -122c26,41 14,96 -26,122l26 -122zm575 -1511c399,399 646,950 646,1559 0,609 -247,1160 -646,1559 -399,399 -950,646 -1559,646 -609,0 -1160,-247 -1559,-646 -399,-399 -646,-950 -646,-1559 0,-609 247,-1160 646,-1559 399,-399 950,-646 1559,-646 609,0 1160,247 1559,646z"/> </g> </g> </g> </svg>